<svg xmlns="http://www.w3.org/2000/svg" width="326" height="37" viewBox="0 0 326 37">
  <g fill="none" fill-rule="evenodd" transform="translate(-.003)">
    <path fill="#333" d="M0.195402439,34.59 L0.195402439,1.643 C0.195402439,1.23566463 0.375018021,0.90666792 0.734254573,0.656 C1.09349113,0.40533208 1.55424414,0.28 2.11652744,0.28 C2.67881074,0.28 3.14737313,0.40533208 3.52222866,0.656 C3.89708419,0.90666792 4.08450915,1.23566463 4.08450915,1.643 L4.08450915,34.59 C4.08450915,34.9346684 3.88927482,35.2558318 3.4988003,35.5535 C3.10832579,35.8511682 2.64757278,36 2.11652744,36 C1.5854821,36 1.13253846,35.8590014 0.757682927,35.577 C0.382827394,35.2949986 0.195402439,34.9660019 0.195402439,34.59 Z M10.2227378,6.954 C9.75416839,6.48399765 9.5198872,5.95133631 9.5198872,5.356 C9.5198872,4.76066369 9.75416839,4.24366886 10.2227378,3.805 C10.6913072,3.36633114 11.2692008,3.147 11.956436,3.147 C12.6124332,3.147 13.174708,3.36633114 13.6432774,3.805 C14.1118469,4.24366886 14.346128,4.76066369 14.346128,5.356 C14.346128,5.95133631 14.1118469,6.47616439 13.6432774,6.9305 C13.174708,7.3848356 12.6124332,7.612 11.956436,7.612 C11.3004388,7.612 10.7225452,7.39266886 10.2227378,6.954 Z M10.035311,34.59 L10.035311,15.085 C10.035311,14.6776646 10.2227359,14.3486679 10.5975915,14.098 C10.972447,13.8473321 11.4253906,13.722 11.956436,13.722 C12.5187193,13.722 12.9872817,13.8473321 13.3621372,14.098 C13.7369927,14.3486679 13.9244177,14.6776646 13.9244177,15.085 L13.9244177,34.59 C13.9244177,34.9346684 13.7291834,35.2558318 13.3387088,35.5535 C12.9482343,35.8511682 12.4874813,36 11.956436,36 C11.4253906,36 10.972447,35.8590014 10.5975915,35.577 C10.2227359,35.2949986 10.035311,34.9660019 10.035311,34.59 Z M17.2512439,15.32 C17.2512439,14.8813311 17.524572,14.4896684 18.0712363,14.145 C18.6179006,13.8003316 19.1723661,13.628 19.7346494,13.628 C20.3906466,13.628 20.8123527,13.8786642 20.9997805,14.38 L26.9505823,30.36 L32.8076707,14.568 C33.0575744,13.9413302 33.4792806,13.628 34.0728018,13.628 C34.5726092,13.628 35.1192653,13.8003316 35.7127866,14.145 C36.3063078,14.4896684 36.603064,14.8813311 36.603064,15.32 C36.603064,15.5706679 36.540589,15.8213321 36.4156372,16.072 L28.7311372,35.577 C28.4812335,36.1410028 27.8877211,36.423 26.9505823,36.423 C25.9822055,36.423 25.3730744,36.1410028 25.1231707,35.577 L17.4386707,16.072 C17.3137189,15.6959981 17.2512439,15.445334 17.2512439,15.32 Z M39.0864695,27.258 L39.0864695,22.323 C39.0864695,19.9103213 40.0001662,17.8266754 41.8275869,16.072 C43.6550076,14.3173246 45.8494415,13.44 48.4109543,13.44 C50.8475152,13.44 52.956046,14.2624918 54.7366098,15.9075 C56.5171735,17.5525082 57.4074421,19.6126543 57.4074421,22.088 C57.4074421,22.9966712 57.2981108,23.7251639 57.0794451,24.2735 C56.8607794,24.8218361 56.5249764,25.2134988 56.0720259,25.4485 C55.6190755,25.6835012 55.1973693,25.832333 54.8068948,25.895 C54.4164203,25.957667 53.8931923,25.989 53.2371951,25.989 L42.9755762,25.989 L42.9755762,27.399 C42.9755762,29.1223419 43.5925167,30.5009948 44.8264162,31.535 C46.0603156,32.5690052 47.6612371,33.086 49.6292287,33.086 C50.6600814,33.086 51.5581593,32.9293349 52.3234893,32.616 C53.0888194,32.3026651 53.7057599,31.9971682 54.1743293,31.6995 C54.6428987,31.4018318 55.0177486,31.253 55.2988902,31.253 C55.7362217,31.253 56.1110716,31.4488314 56.4234512,31.8405 C56.7358308,32.2321686 56.8920183,32.6316646 56.8920183,33.039 C56.8920183,33.7596703 56.1813653,34.4959962 54.7600381,35.248 C53.3387109,36.0000038 51.5816019,36.376 49.4886585,36.376 C46.4273384,36.376 43.928339,35.5378417 41.9915854,33.8615 C40.0548318,32.1851583 39.0864695,29.9840136 39.0864695,27.258 Z M42.9755762,23.357 L51.6440671,23.357 C52.4562541,23.357 53.0029102,23.2551677 53.2840518,23.0515 C53.5651935,22.8478323 53.7057622,22.4483363 53.7057622,21.853 C53.7057622,20.4429929 53.1903436,19.2053387 52.1594909,18.14 C51.1286381,17.0746613 49.8635197,16.542 48.3640976,16.542 C46.8959134,16.542 45.6307949,17.0354951 44.5687043,18.0225 C43.5066136,19.0095049 42.9755762,20.2236595 42.9755762,21.665 L42.9755762,23.357 Z M210.019738,28.903 L210.019738,4.698 C210.019738,4.32199812 210.222782,4.00083466 210.628875,3.7345 C211.034968,3.46816533 211.472293,3.335 211.940863,3.335 C212.44067,3.335 212.893614,3.46816533 213.299707,3.7345 C213.705801,4.00083466 213.908845,4.32199812 213.908845,4.698 L213.908845,13.722 L219.81279,13.722 C220.156407,13.722 220.437545,13.8786651 220.65621,14.192 C220.874876,14.5053349 220.984207,14.8656646 220.984207,15.273 C220.984207,15.6803354 220.874876,16.0328318 220.65621,16.3305 C220.437545,16.6281682 220.156407,16.777 219.81279,16.777 L213.908845,16.777 L213.908845,28.903 C213.908845,30.2503401 214.197791,31.1981639 214.775694,31.7465 C215.353596,32.2948361 216.361005,32.569 217.797951,32.569 L219.250509,32.569 C219.781554,32.569 220.195451,32.7334984 220.492212,33.0625 C220.788973,33.3915016 220.937351,33.7909976 220.937351,34.261 C220.937351,34.7310023 220.781163,35.1383316 220.468784,35.483 C220.156404,35.8276684 219.750317,36 219.250509,36 L217.797951,36 C212.61245,36 210.019738,33.634357 210.019738,28.903 Z M224.826457,6.954 C224.357888,6.48399765 224.123607,5.95133631 224.123607,5.356 C224.123607,4.76066369 224.357888,4.24366886 224.826457,3.805 C225.295027,3.36633114 225.87292,3.147 226.560155,3.147 C227.216153,3.147 227.778428,3.36633114 228.246997,3.805 C228.715566,4.24366886 228.949848,4.76066369 228.949848,5.356 C228.949848,5.95133631 228.715566,6.47616439 228.246997,6.9305 C227.778428,7.3848356 227.216153,7.612 226.560155,7.612 C225.904158,7.612 225.326265,7.39266886 224.826457,6.954 Z M224.63903,34.59 L224.63903,15.085 C224.63903,14.6776646 224.826455,14.3486679 225.201311,14.098 C225.576167,13.8473321 226.02911,13.722 226.560155,13.722 C227.122439,13.722 227.591001,13.8473321 227.965857,14.098 C228.340712,14.3486679 228.528137,14.6776646 228.528137,15.085 L228.528137,34.59 C228.528137,34.9346684 228.332903,35.2558318 227.942428,35.5535 C227.551954,35.8511682 227.091201,36 226.560155,36 C226.02911,36 225.576167,35.8590014 225.201311,35.577 C224.826455,35.2949986 224.63903,34.9660019 224.63903,34.59 Z M233.260665,27.258 L233.260665,22.558 C233.260665,19.8633199 234.049411,17.6700085 235.626928,15.978 C237.204445,14.2859915 239.523829,13.44 242.585149,13.44 C244.521903,13.44 246.154062,13.7846632 247.481675,14.474 C248.809289,15.1633368 249.473085,15.8996627 249.473085,16.683 C249.473085,17.1216689 249.309089,17.5524979 248.98109,17.9755 C248.653091,18.3985021 248.270432,18.61 247.833101,18.61 C247.708149,18.61 247.169302,18.3358361 246.216544,17.7875 C245.263786,17.2391639 244.147046,16.965 242.86629,16.965 C240.992012,16.965 239.570706,17.4506618 238.602329,18.422 C237.633952,19.3933382 237.149771,20.7719911 237.149771,22.558 L237.149771,27.258 C237.149771,30.9866853 239.070877,32.851 242.913146,32.851 C244.225141,32.851 245.365309,32.5690028 246.333686,32.005 C247.302063,31.4409972 247.864338,31.159 248.020527,31.159 C248.520335,31.159 248.934232,31.3626646 249.26223,31.77 C249.590229,32.1773354 249.754226,32.6003311 249.754226,33.039 C249.754226,33.8223372 249.067001,34.5743297 247.69253,35.295 C246.31806,36.0156703 244.631236,36.376 242.632006,36.376 C239.539448,36.376 237.204445,35.5378417 235.626928,33.8615 C234.049411,32.1851583 233.260665,29.9840136 233.260665,27.258 Z M253.643332,34.59 L253.643332,1.643 C253.643332,1.23566463 253.822948,0.90666792 254.182184,0.656 C254.541421,0.40533208 255.002174,0.28 255.564457,0.28 C256.126741,0.28 256.595303,0.40533208 256.970159,0.656 C257.345014,0.90666792 257.532439,1.23566463 257.532439,1.643 L257.532439,23.639 L268.215768,13.957 C268.49691,13.7376656 268.778047,13.628 269.059189,13.628 C269.527758,13.628 269.972893,13.8159981 270.394605,14.192 C270.816318,14.5680019 271.027171,14.9909976 271.027171,15.461 C271.027171,15.8370019 270.886602,16.1503321 270.60546,16.401 L264.092378,22.182 L271.870591,33.509 C272.026781,33.7596679 272.104875,33.9946656 272.104875,34.214 C272.104875,34.6840023 271.870594,35.1304979 271.402024,35.5535 C270.933455,35.9765021 270.449274,36.188 269.949466,36.188 C269.512135,36.188 269.152904,35.9843354 268.871762,35.577 L261.421546,24.626 L257.532439,28.104 L257.532439,34.59 C257.532439,34.9346684 257.337205,35.2558318 256.94673,35.5535 C256.556256,35.8511682 256.095503,36 255.564457,36 C255.033412,36 254.580468,35.8590014 254.205613,35.577 C253.830757,35.2949986 253.643332,34.9660019 253.643332,34.59 Z M274.635137,27.258 L274.635137,22.323 C274.635137,19.9103213 275.548834,17.8266754 277.376255,16.072 C279.203675,14.3173246 281.398109,13.44 283.959622,13.44 C286.396183,13.44 288.504714,14.2624918 290.285277,15.9075 C292.065841,17.5525082 292.95611,19.6126543 292.95611,22.088 C292.95611,22.9966712 292.846779,23.7251639 292.628113,24.2735 C292.409447,24.8218361 292.073644,25.2134988 291.620694,25.4485 C291.167743,25.6835012 290.746037,25.832333 290.355562,25.895 C289.965088,25.957667 289.44186,25.989 288.785863,25.989 L278.524244,25.989 L278.524244,27.399 C278.524244,29.1223419 279.141184,30.5009948 280.375084,31.535 C281.608983,32.5690052 283.209905,33.086 285.177896,33.086 C286.208749,33.086 287.106827,32.9293349 287.872157,32.616 C288.637487,32.3026651 289.254428,31.9971682 289.722997,31.6995 C290.191566,31.4018318 290.566416,31.253 290.847558,31.253 C291.284889,31.253 291.659739,31.4488314 291.972119,31.8405 C292.284499,32.2321686 292.440686,32.6316646 292.440686,33.039 C292.440686,33.7596703 291.730033,34.4959962 290.308706,35.248 C288.887379,36.0000038 287.13027,36.376 285.037326,36.376 C281.976006,36.376 279.477007,35.5378417 277.540253,33.8615 C275.603499,32.1851583 274.635137,29.9840136 274.635137,27.258 Z M278.524244,23.357 L287.192735,23.357 C288.004922,23.357 288.551578,23.2551677 288.83272,23.0515 C289.113861,22.8478323 289.25443,22.4483363 289.25443,21.853 C289.25443,20.4429929 288.739011,19.2053387 287.708159,18.14 C286.677306,17.0746613 285.412187,16.542 283.912765,16.542 C282.444581,16.542 281.179463,17.0354951 280.117372,18.0225 C279.055281,19.0095049 278.524244,20.2236595 278.524244,21.665 L278.524244,23.357 Z M297.173213,28.903 L297.173213,4.698 C297.173213,4.32199812 297.376257,4.00083466 297.782351,3.7345 C298.188444,3.46816533 298.625769,3.335 299.094338,3.335 C299.594146,3.335 300.047089,3.46816533 300.453183,3.7345 C300.859276,4.00083466 301.06232,4.32199812 301.06232,4.698 L301.06232,13.722 L306.966265,13.722 C307.309883,13.722 307.59102,13.8786651 307.809686,14.192 C308.028352,14.5053349 308.137683,14.8656646 308.137683,15.273 C308.137683,15.6803354 308.028352,16.0328318 307.809686,16.3305 C307.59102,16.6281682 307.309883,16.777 306.966265,16.777 L301.06232,16.777 L301.06232,28.903 C301.06232,30.2503401 301.351267,31.1981639 301.929169,31.7465 C302.507071,32.2948361 303.514481,32.569 304.951427,32.569 L306.403985,32.569 C306.93503,32.569 307.348927,32.7334984 307.645688,33.0625 C307.942448,33.3915016 308.090826,33.7909976 308.090826,34.261 C308.090826,34.7310023 307.934639,35.1383316 307.622259,35.483 C307.30988,35.8276684 306.903792,36 306.403985,36 L304.951427,36 C299.765925,36 297.173213,33.634357 297.173213,28.903 Z M310.433662,32.804 C310.433662,32.3966646 310.566421,31.9971686 310.831944,31.6055 C311.097466,31.2138314 311.417651,31.018 311.792506,31.018 C312.04241,31.018 312.401641,31.2059981 312.87021,31.582 C313.33878,31.9580019 314.010386,32.3261649 314.885049,32.6865 C315.759712,33.0468351 316.790549,33.227 317.977591,33.227 C319.53949,33.227 320.671849,32.9450028 321.374703,32.381 C322.077557,31.8169972 322.428979,31.1120042 322.428979,30.266 C322.428979,29.2319948 322.03851,28.4095031 321.257561,27.7985 C320.476612,27.1874969 319.523868,26.7253349 318.399302,26.412 C317.274735,26.0986651 316.150186,25.7540019 315.025619,25.378 C313.901052,25.0019981 312.948309,24.3753377 312.16736,23.498 C311.386411,22.6206623 310.995942,21.4613405 310.995942,20.02 C310.995942,18.2339911 311.628501,16.6908398 312.893639,15.3905 C314.158776,14.0901602 316.087691,13.44 318.680442,13.44 C320.336054,13.44 321.851072,13.6984974 323.225543,14.2155 C324.600013,14.7325026 325.287238,15.3199967 325.287238,15.978 C325.287238,16.3540019 325.13886,16.7769976 324.842099,17.247 C324.545338,17.7170023 324.178298,17.952 323.740966,17.952 C323.616015,17.952 323.014693,17.7248356 321.936983,17.2705 C320.859274,16.8161644 319.789389,16.589 318.727299,16.589 C317.290353,16.589 316.220468,16.92583 315.517614,17.5995 C314.81476,18.27317 314.463338,19.0329958 314.463338,19.879 C314.463338,20.7563377 314.853807,21.4456642 315.634756,21.947 C316.415705,22.4483358 317.376258,22.8399986 318.516444,23.122 C319.656629,23.4040014 320.788988,23.7486646 321.913555,24.156 C323.038121,24.5633354 323.990865,25.2604951 324.771814,26.2475 C325.552763,27.2345049 325.943232,28.5113255 325.943232,30.078 C325.943232,32.0206764 325.256007,33.5559944 323.881537,34.684 C322.507066,35.8120056 320.585961,36.376 318.118162,36.376 C315.99398,36.376 314.182206,35.9921705 312.682784,35.2245 C311.183361,34.4568295 310.433662,33.6500042 310.433662,32.804 Z"/>
    <path fill="#C8341E" fill-rule="nonzero" d="M61.3434055,34.12 L61.3434055,9.868 C61.3434055,7.26732033 62.1477709,5.08184218 63.7565259,3.3115 C65.3652809,1.54115781 67.3098148,0.656 69.590186,0.656 L72.3547317,0.656 C73.0732048,0.656 73.6354797,0.90666416 74.0415732,1.408 C74.4476667,1.90933584 74.6507104,2.50466322 74.6507104,3.194 C74.6507104,3.91467027 74.4476667,4.52566416 74.0415732,5.027 C73.6354797,5.52833584 73.0732048,5.779 72.3547317,5.779 L70.8553171,5.779 C69.8244644,5.779 68.9888614,6.0923302 68.3484832,6.719 C67.708105,7.3456698 67.3879207,8.17599483 67.3879207,9.21 L67.3879207,13.675 L73.104439,13.675 C73.5730084,13.675 73.9478584,13.8943311 74.229,14.333 C74.5101416,14.7716689 74.6507104,15.2886637 74.6507104,15.884 C74.6507104,16.4793363 74.5101416,16.9963311 74.229,17.435 C73.9478584,17.8736689 73.5730084,18.093 73.104439,18.093 L67.3879207,18.093 L67.3879207,34.12 C67.3879207,34.6840028 67.0833552,35.1383316 66.4742149,35.483 C65.8650747,35.8276684 65.138803,36 64.295378,36 C63.4519531,36 62.7491095,35.8276684 62.1868262,35.483 C61.6245429,35.1383316 61.3434055,34.6840028 61.3434055,34.12 Z M76.3844085,26.788 L76.3844085,22.934 C76.3844085,20.3646538 77.3840083,18.1321761 79.3832378,16.2365 C81.3824673,14.3408239 83.7721355,13.393 86.552314,13.393 C89.2700166,13.393 91.6440661,14.3329906 93.6745335,16.213 C95.705001,18.0930094 96.7202195,20.3333203 96.7202195,22.934 L96.7202195,26.788 C96.7202195,29.3260127 95.705001,31.5663236 93.6745335,33.509 C91.6440661,35.4516764 89.2700166,36.423 86.552314,36.423 C83.8346114,36.423 81.460562,35.4516764 79.4300945,33.509 C77.399627,31.5663236 76.3844085,29.3260127 76.3844085,26.788 Z M82.4289238,26.788 C82.4289238,27.9160056 82.8350112,28.9186623 83.6471982,29.796 C84.4593852,30.6733377 85.4277474,31.112 86.552314,31.112 C87.6456427,31.112 88.6061956,30.6733377 89.4340015,29.796 C90.2618075,28.9186623 90.6757043,27.9160056 90.6757043,26.788 L90.6757043,22.934 C90.6757043,21.8686613 90.2618075,20.8973377 89.4340015,20.02 C88.6061956,19.1426623 87.6456427,18.704 86.552314,18.704 C85.4277474,18.704 84.4593852,19.134829 83.6471982,19.9965 C82.8350112,20.858171 82.4289238,21.8373278 82.4289238,22.934 L82.4289238,26.788 Z M99.7190488,26.788 L99.7190488,22.934 C99.7190488,20.3646538 100.718649,18.1321761 102.717878,16.2365 C104.717108,14.3408239 107.106776,13.393 109.886954,13.393 C112.604657,13.393 114.978706,14.3329906 117.009174,16.213 C119.039641,18.0930094 120.05486,20.3333203 120.05486,22.934 L120.05486,26.788 C120.05486,29.3260127 119.039641,31.5663236 117.009174,33.509 C114.978706,35.4516764 112.604657,36.423 109.886954,36.423 C107.169252,36.423 104.795202,35.4516764 102.764735,33.509 C100.734267,31.5663236 99.7190488,29.3260127 99.7190488,26.788 Z M105.763564,26.788 C105.763564,27.9160056 106.169651,28.9186623 106.981838,29.796 C107.794025,30.6733377 108.762388,31.112 109.886954,31.112 C110.980283,31.112 111.940836,30.6733377 112.768642,29.796 C113.596448,28.9186623 114.010345,27.9160056 114.010345,26.788 L114.010345,22.934 C114.010345,21.8686613 113.596448,20.8973377 112.768642,20.02 C111.940836,19.1426623 110.980283,18.704 109.886954,18.704 C108.762388,18.704 107.794025,19.134829 106.981838,19.9965 C106.169651,20.858171 105.763564,21.8373278 105.763564,22.934 L105.763564,26.788 Z M123.850253,28.386 L123.850253,5.591 C123.850253,5.05833067 124.162628,4.61183513 124.787387,4.2515 C125.412146,3.89116486 126.099371,3.711 126.849082,3.711 C127.661269,3.711 128.371922,3.89116486 128.981063,4.2515 C129.590203,4.61183513 129.894768,5.05833067 129.894768,5.591 L129.894768,13.675 L135.42386,13.675 C135.892429,13.675 136.267279,13.8943311 136.548421,14.333 C136.829562,14.7716689 136.970131,15.2886637 136.970131,15.884 C136.970131,16.4793363 136.829562,16.9963311 136.548421,17.435 C136.267279,17.8736689 135.892429,18.093 135.42386,18.093 L129.894768,18.093 L129.894768,28.386 C129.894768,29.2946712 130.090003,29.9369981 130.480477,30.313 C130.870952,30.6890019 131.550367,30.877 132.518744,30.877 L134.346155,30.877 C135.158342,30.877 135.790902,31.1276642 136.243852,31.629 C136.696803,32.1303358 136.923274,32.7256632 136.923274,33.415 C136.923274,34.1356703 136.696803,34.7466642 136.243852,35.248 C135.790902,35.7493358 135.158342,36 134.346155,36 L132.518744,36 C126.739721,36 123.850253,33.4620254 123.850253,28.386 Z M140.203244,34.073 L140.203244,2.536 C140.203244,1.97199718 140.476572,1.51766839 141.023236,1.173 C141.569901,0.82833161 142.280554,0.656 143.155216,0.656 C144.029879,0.656 144.76396,0.82833161 145.357482,1.173 C145.951003,1.51766839 146.247759,1.97199718 146.247759,2.536 L146.247759,16.965 C146.778804,15.9623283 147.567551,15.1163368 148.614023,14.427 C149.660495,13.7376632 150.870947,13.393 152.245418,13.393 C154.525789,13.393 156.485941,14.3329906 158.125934,16.213 C159.765927,18.0930094 160.585912,20.3333203 160.585912,22.934 L160.585912,26.788 C160.585912,29.3260127 159.758118,31.5663236 158.102506,33.509 C156.446894,35.4516764 154.541407,36.423 152.385988,36.423 C150.98028,36.423 149.668305,36.054837 148.450024,35.3185 C147.231744,34.582163 146.372713,33.7126717 145.872905,32.71 L145.872905,34.073 C145.872905,34.5430023 145.599577,34.9816646 145.052913,35.389 C144.506249,35.7963354 143.87369,36 143.155216,36 C142.311792,36 141.608948,35.8041686 141.046665,35.4125 C140.484381,35.0208314 140.203244,34.5743358 140.203244,34.073 Z M146.247759,27.634 C146.247759,28.2293363 146.677275,28.957829 147.536319,29.8195 C148.395363,30.681171 149.371534,31.112 150.464863,31.112 C151.558191,31.112 152.510935,30.6655045 153.323122,29.7725 C154.135309,28.8794955 154.541396,27.8846721 154.541396,26.788 L154.541396,22.934 C154.541396,21.8373278 154.135309,20.858171 153.323122,19.9965 C152.510935,19.134829 151.542573,18.704 150.418006,18.704 C149.355915,18.704 148.395363,19.0956627 147.536319,19.879 C146.677275,20.6623372 146.247759,21.6806604 146.247759,22.934 L146.247759,27.634 Z M163.16303,30.172 C163.16303,27.6339873 164.100155,25.8480052 165.974433,24.814 C167.848711,23.7799948 170.550754,23.263 174.080643,23.263 L176.001768,23.263 L176.001768,22.652 C176.001768,21.4926609 175.665965,20.482171 174.994349,19.6205 C174.322733,18.758829 173.284086,18.328 171.878378,18.328 C170.47267,18.328 169.270026,18.5708309 168.270412,19.0565 C167.270797,19.5421691 166.692903,19.785 166.536713,19.785 C165.911954,19.785 165.412154,19.4716698 165.037299,18.845 C164.662443,18.2183302 164.475018,17.5290038 164.475018,16.777 C164.475018,15.8683288 165.279384,15.07717 166.888139,14.4035 C168.496894,13.72983 170.191528,13.393 171.972091,13.393 C175.377029,13.393 177.907266,14.2624913 179.562878,16.0015 C181.21849,17.7405087 182.046284,19.9259868 182.046284,22.558 L182.046284,34.073 C182.046284,34.6056693 181.765146,35.0599981 181.202863,35.436 C180.64058,35.8120019 179.937736,36 179.094311,36 C178.313362,36 177.665184,35.8120019 177.149758,35.436 C176.634331,35.0599981 176.376622,34.6056693 176.376622,34.073 L176.376622,32.71 C174.221203,35.1853457 171.847153,36.423 169.254402,36.423 C167.473839,36.423 166.013486,35.8903387 164.8733,34.825 C163.733115,33.7596613 163.16303,32.2086768 163.16303,30.172 Z M169.207546,29.373 C169.207546,30.2190042 169.434018,30.8534979 169.886968,31.2765 C170.339918,31.6995021 170.94124,31.911 171.690951,31.911 C172.690566,31.911 173.658928,31.4410047 174.596067,30.501 C175.533206,29.5609953 176.001768,28.5270056 176.001768,27.399 L176.001768,26.412 L175.298918,26.412 C173.393402,26.412 171.901812,26.6078314 170.824102,26.9995 C169.746392,27.3911686 169.207546,28.1823274 169.207546,29.373 Z M186.966238,34.073 L186.966238,2.536 C186.966238,1.97199718 187.239566,1.51766839 187.78623,1.173 C188.332895,0.82833161 189.059166,0.656 189.965067,0.656 C190.808492,0.656 191.526954,0.82833161 192.120476,1.173 C192.713997,1.51766839 193.010753,1.97199718 193.010753,2.536 L193.010753,34.073 C193.010753,34.5430023 192.706187,34.9816646 192.097047,35.389 C191.487907,35.7963354 190.777254,36 189.965067,36 C189.121642,36 188.410989,35.8041686 187.833087,35.4125 C187.255185,35.0208314 186.966238,34.5743358 186.966238,34.073 Z M198.539845,34.073 L198.539845,2.536 C198.539845,1.97199718 198.813173,1.51766839 199.359837,1.173 C199.906501,0.82833161 200.632773,0.656 201.538674,0.656 C202.382099,0.656 203.100561,0.82833161 203.694082,1.173 C204.287604,1.51766839 204.58436,1.97199718 204.58436,2.536 L204.58436,34.073 C204.58436,34.5430023 204.279794,34.9816646 203.670654,35.389 C203.061514,35.7963354 202.350861,36 201.538674,36 C200.695249,36 199.984596,35.8041686 199.406694,35.4125 C198.828791,35.0208314 198.539845,34.5743358 198.539845,34.073 Z"/>
  </g>
</svg>
