<svg xmlns="http://www.w3.org/2000/svg" width="289" height="47" viewBox="0 0 289 47">
  <g fill="none" fill-rule="evenodd">
    <path fill="#333" d="M0.195402439,34.59 L0.195402439,1.643 C0.195402439,1.23566463 0.375018021,0.90666792 0.734254573,0.656 C1.09349113,0.40533208 1.55424414,0.28 2.11652744,0.28 C2.67881074,0.28 3.14737313,0.40533208 3.52222866,0.656 C3.89708419,0.90666792 4.08450915,1.23566463 4.08450915,1.643 L4.08450915,34.59 C4.08450915,34.9346684 3.88927482,35.2558318 3.4988003,35.5535 C3.10832579,35.8511682 2.64757278,36 2.11652744,36 C1.5854821,36 1.13253846,35.8590014 0.757682927,35.577 C0.382827394,35.2949986 0.195402439,34.9660019 0.195402439,34.59 Z M10.2227378,6.954 C9.75416839,6.48399765 9.5198872,5.95133631 9.5198872,5.356 C9.5198872,4.76066369 9.75416839,4.24366886 10.2227378,3.805 C10.6913072,3.36633114 11.2692008,3.147 11.956436,3.147 C12.6124332,3.147 13.174708,3.36633114 13.6432774,3.805 C14.1118469,4.24366886 14.346128,4.76066369 14.346128,5.356 C14.346128,5.95133631 14.1118469,6.47616439 13.6432774,6.9305 C13.174708,7.3848356 12.6124332,7.612 11.956436,7.612 C11.3004388,7.612 10.7225452,7.39266886 10.2227378,6.954 Z M10.035311,34.59 L10.035311,15.085 C10.035311,14.6776646 10.2227359,14.3486679 10.5975915,14.098 C10.972447,13.8473321 11.4253906,13.722 11.956436,13.722 C12.5187193,13.722 12.9872817,13.8473321 13.3621372,14.098 C13.7369927,14.3486679 13.9244177,14.6776646 13.9244177,15.085 L13.9244177,34.59 C13.9244177,34.9346684 13.7291834,35.2558318 13.3387088,35.5535 C12.9482343,35.8511682 12.4874813,36 11.956436,36 C11.4253906,36 10.972447,35.8590014 10.5975915,35.577 C10.2227359,35.2949986 10.035311,34.9660019 10.035311,34.59 Z M17.2512439,15.32 C17.2512439,14.8813311 17.524572,14.4896684 18.0712363,14.145 C18.6179006,13.8003316 19.1723661,13.628 19.7346494,13.628 C20.3906466,13.628 20.8123527,13.8786642 20.9997805,14.38 L26.9505823,30.36 L32.8076707,14.568 C33.0575744,13.9413302 33.4792806,13.628 34.0728018,13.628 C34.5726092,13.628 35.1192653,13.8003316 35.7127866,14.145 C36.3063078,14.4896684 36.603064,14.8813311 36.603064,15.32 C36.603064,15.5706679 36.540589,15.8213321 36.4156372,16.072 L28.7311372,35.577 C28.4812335,36.1410028 27.8877211,36.423 26.9505823,36.423 C25.9822055,36.423 25.3730744,36.1410028 25.1231707,35.577 L17.4386707,16.072 C17.3137189,15.6959981 17.2512439,15.445334 17.2512439,15.32 Z M39.0864695,27.258 L39.0864695,22.323 C39.0864695,19.9103213 40.0001662,17.8266754 41.8275869,16.072 C43.6550076,14.3173246 45.8494415,13.44 48.4109543,13.44 C50.8475152,13.44 52.956046,14.2624918 54.7366098,15.9075 C56.5171735,17.5525082 57.4074421,19.6126543 57.4074421,22.088 C57.4074421,22.9966712 57.2981108,23.7251639 57.0794451,24.2735 C56.8607794,24.8218361 56.5249764,25.2134988 56.0720259,25.4485 C55.6190755,25.6835012 55.1973693,25.832333 54.8068948,25.895 C54.4164203,25.957667 53.8931923,25.989 53.2371951,25.989 L42.9755762,25.989 L42.9755762,27.399 C42.9755762,29.1223419 43.5925167,30.5009948 44.8264162,31.535 C46.0603156,32.5690052 47.6612371,33.086 49.6292287,33.086 C50.6600814,33.086 51.5581593,32.9293349 52.3234893,32.616 C53.0888194,32.3026651 53.7057599,31.9971682 54.1743293,31.6995 C54.6428987,31.4018318 55.0177486,31.253 55.2988902,31.253 C55.7362217,31.253 56.1110716,31.4488314 56.4234512,31.8405 C56.7358308,32.2321686 56.8920183,32.6316646 56.8920183,33.039 C56.8920183,33.7596703 56.1813653,34.4959962 54.7600381,35.248 C53.3387109,36.0000038 51.5816019,36.376 49.4886585,36.376 C46.4273384,36.376 43.928339,35.5378417 41.9915854,33.8615 C40.0548318,32.1851583 39.0864695,29.9840136 39.0864695,27.258 Z M42.9755762,23.357 L51.6440671,23.357 C52.4562541,23.357 53.0029102,23.2551677 53.2840518,23.0515 C53.5651935,22.8478323 53.7057622,22.4483363 53.7057622,21.853 C53.7057622,20.4429929 53.1903436,19.2053387 52.1594909,18.14 C51.1286381,17.0746613 49.8635197,16.542 48.3640976,16.542 C46.8959134,16.542 45.6307949,17.0354951 44.5687043,18.0225 C43.5066136,19.0095049 42.9755762,20.2236595 42.9755762,21.665 L42.9755762,23.357 Z M172.487515,28.903 L172.487515,4.698 C172.487515,4.32199812 172.690559,4.00083466 173.096652,3.7345 C173.502746,3.46816533 173.940071,3.335 174.40864,3.335 C174.908448,3.335 175.361391,3.46816533 175.767485,3.7345 C176.173578,4.00083466 176.376622,4.32199812 176.376622,4.698 L176.376622,13.722 L182.280567,13.722 C182.624185,13.722 182.905322,13.8786651 183.123988,14.192 C183.342654,14.5053349 183.451985,14.8656646 183.451985,15.273 C183.451985,15.6803354 183.342654,16.0328318 183.123988,16.3305 C182.905322,16.6281682 182.624185,16.777 182.280567,16.777 L176.376622,16.777 L176.376622,28.903 C176.376622,30.2503401 176.665569,31.1981639 177.243471,31.7465 C177.821373,32.2948361 178.828782,32.569 180.265729,32.569 L181.718287,32.569 C182.249332,32.569 182.663229,32.7334984 182.959989,33.0625 C183.25675,33.3915016 183.405128,33.7909976 183.405128,34.261 C183.405128,34.7310023 183.248941,35.1383316 182.936561,35.483 C182.624181,35.8276684 182.218094,36 181.718287,36 L180.265729,36 C175.080227,36 172.487515,33.634357 172.487515,28.903 Z M187.294235,6.954 C186.825665,6.48399765 186.591384,5.95133631 186.591384,5.356 C186.591384,4.76066369 186.825665,4.24366886 187.294235,3.805 C187.762804,3.36633114 188.340698,3.147 189.027933,3.147 C189.68393,3.147 190.246205,3.36633114 190.714774,3.805 C191.183344,4.24366886 191.417625,4.76066369 191.417625,5.356 C191.417625,5.95133631 191.183344,6.47616439 190.714774,6.9305 C190.246205,7.3848356 189.68393,7.612 189.027933,7.612 C188.371936,7.612 187.794042,7.39266886 187.294235,6.954 Z M187.106808,34.59 L187.106808,15.085 C187.106808,14.6776646 187.294233,14.3486679 187.669088,14.098 C188.043944,13.8473321 188.496888,13.722 189.027933,13.722 C189.590216,13.722 190.058779,13.8473321 190.433634,14.098 C190.80849,14.3486679 190.995915,14.6776646 190.995915,15.085 L190.995915,34.59 C190.995915,34.9346684 190.80068,35.2558318 190.410206,35.5535 C190.019731,35.8511682 189.558978,36 189.027933,36 C188.496888,36 188.043944,35.8590014 187.669088,35.577 C187.294233,35.2949986 187.106808,34.9660019 187.106808,34.59 Z M195.728442,27.258 L195.728442,22.558 C195.728442,19.8633199 196.517189,17.6700085 198.094706,15.978 C199.672223,14.2859915 201.991607,13.44 205.052927,13.44 C206.98968,13.44 208.621839,13.7846632 209.949453,14.474 C211.277066,15.1633368 211.940863,15.8996627 211.940863,16.683 C211.940863,17.1216689 211.776866,17.5524979 211.448867,17.9755 C211.120869,18.3985021 210.73821,18.61 210.300878,18.61 C210.175926,18.61 209.637079,18.3358361 208.684322,17.7875 C207.731564,17.2391639 206.614823,16.965 205.334067,16.965 C203.459789,16.965 202.038484,17.4506618 201.070107,18.422 C200.10173,19.3933382 199.617549,20.7719911 199.617549,22.558 L199.617549,27.258 C199.617549,30.9866853 201.538655,32.851 205.380924,32.851 C206.692918,32.851 207.833087,32.5690028 208.801463,32.005 C209.76984,31.4409972 210.332115,31.159 210.488305,31.159 C210.988112,31.159 211.402009,31.3626646 211.730008,31.77 C212.058006,32.1773354 212.222003,32.6003311 212.222003,33.039 C212.222003,33.8223372 211.534778,34.5743297 210.160308,35.295 C208.785838,36.0156703 207.099013,36.376 205.099784,36.376 C202.007225,36.376 199.672223,35.5378417 198.094706,33.8615 C196.517189,32.1851583 195.728442,29.9840136 195.728442,27.258 Z M216.11111,34.59 L216.11111,1.643 C216.11111,1.23566463 216.290725,0.90666792 216.649962,0.656 C217.009198,0.40533208 217.469951,0.28 218.032235,0.28 C218.594518,0.28 219.06308,0.40533208 219.437936,0.656 C219.812792,0.90666792 220.000216,1.23566463 220.000216,1.643 L220.000216,23.639 L230.683546,13.957 C230.964687,13.7376656 231.245825,13.628 231.526966,13.628 C231.995536,13.628 232.44067,13.8159981 232.862383,14.192 C233.284095,14.5680019 233.494948,14.9909976 233.494948,15.461 C233.494948,15.8370019 233.354379,16.1503321 233.073238,16.401 L226.560155,22.182 L234.338369,33.509 C234.494559,33.7596679 234.572652,33.9946656 234.572652,34.214 C234.572652,34.6840023 234.338371,35.1304979 233.869802,35.5535 C233.401232,35.9765021 232.917051,36.188 232.417244,36.188 C231.979912,36.188 231.620681,35.9843354 231.33954,35.577 L223.889323,24.626 L220.000216,28.104 L220.000216,34.59 C220.000216,34.9346684 219.804982,35.2558318 219.414508,35.5535 C219.024033,35.8511682 218.56328,36 218.032235,36 C217.501189,36 217.048246,35.8590014 216.67339,35.577 C216.298535,35.2949986 216.11111,34.9660019 216.11111,34.59 Z M237.102915,27.258 L237.102915,22.323 C237.102915,19.9103213 238.016611,17.8266754 239.844032,16.072 C241.671453,14.3173246 243.865887,13.44 246.427399,13.44 C248.86396,13.44 250.972491,14.2624918 252.753055,15.9075 C254.533619,17.5525082 255.423887,19.6126543 255.423887,22.088 C255.423887,22.9966712 255.314556,23.7251639 255.09589,24.2735 C254.877225,24.8218361 254.541421,25.2134988 254.088471,25.4485 C253.635521,25.6835012 253.213814,25.832333 252.82334,25.895 C252.432865,25.957667 251.909637,25.989 251.25364,25.989 L240.992021,25.989 L240.992021,27.399 C240.992021,29.1223419 241.608962,30.5009948 242.842861,31.535 C244.076761,32.5690052 245.677682,33.086 247.645674,33.086 C248.676526,33.086 249.574604,32.9293349 250.339934,32.616 C251.105264,32.3026651 251.722205,31.9971682 252.190774,31.6995 C252.659344,31.4018318 253.034194,31.253 253.315335,31.253 C253.752667,31.253 254.127517,31.4488314 254.439896,31.8405 C254.752276,32.2321686 254.908463,32.6316646 254.908463,33.039 C254.908463,33.7596703 254.19781,34.4959962 252.776483,35.248 C251.355156,36.0000038 249.598047,36.376 247.505104,36.376 C244.443783,36.376 241.944784,35.5378417 240.00803,33.8615 C238.071277,32.1851583 237.102915,29.9840136 237.102915,27.258 Z M240.992021,23.357 L249.660512,23.357 C250.472699,23.357 251.019355,23.2551677 251.300497,23.0515 C251.581639,22.8478323 251.722207,22.4483363 251.722207,21.853 C251.722207,20.4429929 251.206789,19.2053387 250.175936,18.14 C249.145083,17.0746613 247.879965,16.542 246.380543,16.542 C244.912359,16.542 243.64724,17.0354951 242.585149,18.0225 C241.523059,19.0095049 240.992021,20.2236595 240.992021,21.665 L240.992021,23.357 Z M259.640991,28.903 L259.640991,4.698 C259.640991,4.32199812 259.844035,4.00083466 260.250128,3.7345 C260.656222,3.46816533 261.093546,3.335 261.562116,3.335 C262.061923,3.335 262.514867,3.46816533 262.92096,3.7345 C263.327054,4.00083466 263.530098,4.32199812 263.530098,4.698 L263.530098,13.722 L269.434043,13.722 C269.77766,13.722 270.058798,13.8786651 270.277463,14.192 C270.496129,14.5053349 270.60546,14.8656646 270.60546,15.273 C270.60546,15.6803354 270.496129,16.0328318 270.277463,16.3305 C270.058798,16.6281682 269.77766,16.777 269.434043,16.777 L263.530098,16.777 L263.530098,28.903 C263.530098,30.2503401 263.819044,31.1981639 264.396947,31.7465 C264.974849,32.2948361 265.982258,32.569 267.419204,32.569 L268.871762,32.569 C269.402808,32.569 269.816704,32.7334984 270.113465,33.0625 C270.410226,33.3915016 270.558604,33.7909976 270.558604,34.261 C270.558604,34.7310023 270.402416,35.1383316 270.090037,35.483 C269.777657,35.8276684 269.37157,36 268.871762,36 L267.419204,36 C262.233703,36 259.640991,33.634357 259.640991,28.903 Z M272.901439,32.804 C272.901439,32.3966646 273.034198,31.9971686 273.299721,31.6055 C273.565244,31.2138314 273.885428,31.018 274.260284,31.018 C274.510187,31.018 274.869418,31.2059981 275.337988,31.582 C275.806557,31.9580019 276.478163,32.3261649 277.352826,32.6865 C278.227489,33.0468351 279.258326,33.227 280.445369,33.227 C282.007267,33.227 283.139626,32.9450028 283.84248,32.381 C284.545334,31.8169972 284.896756,31.1120042 284.896756,30.266 C284.896756,29.2319948 284.506287,28.4095031 283.725338,27.7985 C282.944389,27.1874969 281.991646,26.7253349 280.867079,26.412 C279.742513,26.0986651 278.617963,25.7540019 277.493396,25.378 C276.36883,25.0019981 275.416086,24.3753377 274.635137,23.498 C273.854188,22.6206623 273.46372,21.4613405 273.46372,20.02 C273.46372,18.2339911 274.096279,16.6908398 275.361416,15.3905 C276.626554,14.0901602 278.555469,13.44 281.14822,13.44 C282.803831,13.44 284.31885,13.6984974 285.69332,14.2155 C287.06779,14.7325026 287.755015,15.3199967 287.755015,15.978 C287.755015,16.3540019 287.606637,16.7769976 287.309877,17.247 C287.013116,17.7170023 286.646075,17.952 286.208744,17.952 C286.083792,17.952 285.48247,17.7248356 284.404761,17.2705 C283.327051,16.8161644 282.257167,16.589 281.195076,16.589 C279.75813,16.589 278.688246,16.92583 277.985392,17.5995 C277.282538,18.27317 276.931116,19.0329958 276.931116,19.879 C276.931116,20.7563377 277.321585,21.4456642 278.102534,21.947 C278.883483,22.4483358 279.844035,22.8399986 280.984221,23.122 C282.124407,23.4040014 283.256766,23.7486646 284.381332,24.156 C285.505899,24.5633354 286.458642,25.2604951 287.239591,26.2475 C288.02054,27.2345049 288.411009,28.5113255 288.411009,30.078 C288.411009,32.0206764 287.723784,33.5559944 286.349314,34.684 C284.974844,35.8120056 283.053738,36.376 280.585939,36.376 C278.461758,36.376 276.649983,35.9921705 275.150561,35.2245 C273.651139,34.4568295 272.901439,33.6500042 272.901439,32.804 Z"/>
    <path fill="#C8341E" fill-rule="nonzero" d="M61.2965488,34.073 L61.2965488,15.555 C61.2965488,14.9909972 61.5698768,14.5366684 62.1165412,14.192 C62.6632055,13.8473316 63.3738584,13.675 64.2485213,13.675 C65.0294704,13.675 65.6776483,13.8473316 66.1930747,14.192 C66.7085011,14.5366684 66.9662104,14.9909972 66.9662104,15.555 L66.9662104,17.482 C67.4660177,16.3853279 68.2469551,15.4296707 69.3090457,14.615 C70.3711364,13.8003293 71.5113049,13.393 72.7295854,13.393 L74.1821433,13.393 C74.7444266,13.393 75.2520358,13.6593307 75.7049863,14.192 C76.1579367,14.7246693 76.3844085,15.3356632 76.3844085,16.025 C76.3844085,16.7456703 76.1579367,17.3723307 75.7049863,17.905 C75.2520358,18.4376693 74.7444266,18.704 74.1821433,18.704 L72.7295854,18.704 C71.2926392,18.704 70.0353301,19.3463269 68.9576204,20.631 C67.8799108,21.9156731 67.341064,23.5919897 67.341064,25.66 L67.341064,34.073 C67.341064,34.5430024 67.0286891,34.9816646 66.4039299,35.389 C65.7791707,35.7963354 65.0607083,36 64.2485213,36 C63.4050964,36 62.7022528,35.8041686 62.1399695,35.4125 C61.5776862,35.0208314 61.2965488,34.5743358 61.2965488,34.073 Z M78.7272439,26.882 L78.7272439,15.602 C78.7272439,15.1319976 79.0318095,14.6933354 79.6409497,14.286 C80.2500899,13.8786646 80.9607429,13.675 81.7729299,13.675 C82.5538789,13.675 83.2489131,13.8786646 83.8580534,14.286 C84.4671936,14.6933354 84.7717591,15.1319976 84.7717591,15.602 L84.7717591,26.882 C84.7717591,27.9786721 85.1778465,28.957829 85.9900335,29.8195 C86.8022205,30.681171 87.7705828,31.112 88.8951494,31.112 C90.019716,31.112 90.9802689,30.681171 91.7768369,29.8195 C92.5734049,28.957829 92.9716829,27.9786721 92.9716829,26.882 L92.9716829,15.555 C92.9716829,15.0536642 93.2762485,14.6150019 93.8853887,14.239 C94.494529,13.8629981 95.2051819,13.675 96.0173689,13.675 C96.8920318,13.675 97.6104941,13.8629981 98.1727774,14.239 C98.7350607,14.6150019 99.0161982,15.0536642 99.0161982,15.555 L99.0161982,26.882 C99.0161982,29.4200127 98.0165984,31.6446571 96.0173689,33.556 C94.0181394,35.4673429 91.64409,36.423 88.8951494,36.423 C86.1462088,36.423 83.76435,35.4673429 81.7495015,33.556 C79.734653,31.6446571 78.7272439,29.4200127 78.7272439,26.882 Z M101.874457,39.76 C101.874457,37.5979892 103.014626,35.9373391 105.294997,34.778 C103.983003,34.1513302 103.327015,33.1486736 103.327015,31.77 C103.327015,30.3913264 104.123571,29.1693387 105.716707,28.104 C103.779954,26.5999925 102.811591,24.6103457 102.811591,22.135 L102.811591,21.148 C102.811591,18.8606552 103.655004,16.9963405 105.341854,15.555 C107.028704,14.1136595 109.230947,13.393 111.948649,13.393 C114.010355,13.393 115.790892,13.8473288 117.290314,14.756 C118.227453,12.6253227 119.180196,11.56 120.148573,11.56 C120.867046,11.56 121.44494,11.7636646 121.882271,12.171 C122.319603,12.5783354 122.538265,13.0013311 122.538265,13.44 C122.538265,13.9413358 122.288365,14.3799981 121.788558,14.756 C120.632753,15.5706707 119.898672,16.1659981 119.586293,16.542 C120.679621,17.8266731 121.226277,19.3619911 121.226277,21.148 L121.226277,22.135 C121.226277,24.3910113 120.359437,26.2631592 118.62573,27.7515 C116.892023,29.2398408 114.666352,29.984 111.948649,29.984 C110.824083,29.984 109.808864,29.8430014 108.902963,29.561 C108.528108,29.8743349 108.340683,30.1876651 108.340683,30.501 C108.340683,31.0336693 108.824864,31.4253321 109.793241,31.676 C110.761618,31.9266679 111.940833,32.1381658 113.330922,32.3105 C114.721012,32.4828342 116.103271,32.7334984 117.477741,33.0625 C118.852211,33.3915016 120.023617,34.0573283 120.991994,35.06 C121.960371,36.0626717 122.444552,37.3786585 122.444552,39.008 C122.444552,41.4520122 121.460571,43.2928271 119.492579,44.5305 C117.524588,45.7681729 115.103682,46.387 112.22979,46.387 C109.324659,46.387 106.872516,45.7916726 104.873287,44.601 C102.874057,43.4103274 101.874457,41.7966768 101.874457,39.76 Z M107.590976,39.149 C107.590976,40.1830052 108.028301,40.9976637 108.902963,41.593 C109.777626,42.1883363 110.85532,42.486 112.136076,42.486 C113.416833,42.486 114.478907,42.1883363 115.322332,41.593 C116.165757,40.9976637 116.587463,40.1986717 116.587463,39.196 C116.587463,38.7573311 116.50937,38.3735016 116.35318,38.0445 C116.19699,37.7154984 115.923662,37.4413344 115.533188,37.222 C115.142713,37.0026656 114.799101,36.8225007 114.50234,36.6815 C114.205579,36.5404993 113.729208,36.4151672 113.07321,36.3055 C112.417213,36.1958328 111.940841,36.1253335 111.644081,36.094 C111.34732,36.0626665 110.839711,36.0000005 110.121238,35.906 C108.434388,36.6893372 107.590976,37.7703264 107.590976,39.149 Z M108.66868,22.088 C108.66868,23.3100061 108.965436,24.320496 109.558957,25.1195 C110.152479,25.918504 110.980272,26.318 112.042363,26.318 C113.073216,26.318 113.88539,25.9341705 114.478912,25.1665 C115.072433,24.3988295 115.369189,23.3883396 115.369189,22.135 L115.369189,21.148 C115.369189,19.9886609 115.064623,19.0173372 114.455483,18.234 C113.846343,17.4506627 113.026359,17.059 111.995506,17.059 C110.964653,17.059 110.152479,17.4428295 109.558957,18.2105 C108.965436,18.9781705 108.66868,19.9573274 108.66868,21.148 L108.66868,22.088 Z M125.583951,34.073 L125.583951,2.536 C125.583951,1.97199718 125.857279,1.51766839 126.403944,1.173 C126.950608,0.82833161 127.661261,0.656 128.535924,0.656 C129.410587,0.656 130.144668,0.82833161 130.738189,1.173 C131.33171,1.51766839 131.628466,1.97199718 131.628466,2.536 L131.628466,16.965 C132.159512,15.9623283 132.948258,15.1163368 133.99473,14.427 C135.041202,13.7376632 136.251655,13.393 137.626125,13.393 C139.906496,13.393 141.866649,14.3329906 143.506642,16.213 C145.146635,18.0930094 145.966619,20.3333203 145.966619,22.934 L145.966619,26.788 C145.966619,29.3260127 145.138825,31.5663236 143.483213,33.509 C141.827601,35.4516764 139.922114,36.423 137.766695,36.423 C136.360987,36.423 135.049012,36.054837 133.830732,35.3185 C132.612451,34.582163 131.75342,33.7126717 131.253613,32.71 L131.253613,34.073 C131.253613,34.5430023 130.980285,34.9816646 130.43362,35.389 C129.886956,35.7963354 129.254397,36 128.535924,36 C127.692499,36 126.989655,35.8041686 126.427372,35.4125 C125.865089,35.0208314 125.583951,34.5743358 125.583951,34.073 Z M131.628466,27.634 C131.628466,28.2293363 132.057982,28.957829 132.917026,29.8195 C133.77607,30.681171 134.752241,31.112 135.84557,31.112 C136.938899,31.112 137.891642,30.6655045 138.703829,29.7725 C139.516016,28.8794955 139.922104,27.8846721 139.922104,26.788 L139.922104,22.934 C139.922104,21.8373278 139.516016,20.858171 138.703829,19.9965 C137.891642,19.134829 136.92328,18.704 135.798713,18.704 C134.736623,18.704 133.77607,19.0956627 132.917026,19.879 C132.057982,20.6623372 131.628466,21.6806604 131.628466,22.934 L131.628466,27.634 Z M147.79403,43.802 C147.79403,42.1099915 148.309449,41.264 149.340302,41.264 C150.808486,41.264 152.25322,40.7313387 153.674547,39.666 C155.095874,38.6006613 155.884621,36.8303457 156.040811,34.355 L147.981457,17.059 C147.856505,16.7456651 147.79403,16.4793344 147.79403,16.26 C147.79403,15.5079962 148.254784,14.8343363 149.176303,14.239 C150.097823,13.6436637 150.980282,13.346 151.823707,13.346 C152.760846,13.346 153.33874,13.6906632 153.557405,14.38 L159.18021,28.433 L163.725311,14.38 C163.943977,13.6906632 164.475014,13.346 165.318439,13.346 C166.130626,13.346 167.020895,13.6514969 167.989271,14.2625 C168.957648,14.8735031 169.441829,15.5706628 169.441829,16.354 C169.441829,16.6046679 169.394973,16.8396656 169.301259,17.059 L162.46018,34.59 L161.663616,36.658 C161.28876,37.7233387 161.015432,38.4596646 160.843623,38.867 C160.671815,39.2743354 160.375059,39.908829 159.953346,40.7705 C159.531634,41.632171 159.156784,42.2588314 158.828785,42.6505 C158.500786,43.0421686 158.040033,43.5278304 157.446512,44.1075 C156.852991,44.6871696 156.251669,45.1101653 155.642529,45.3765 C155.033389,45.6428347 154.291498,45.8778323 153.416835,46.0815 C152.542172,46.2851677 151.589429,46.387 150.558576,46.387 C149.652675,46.387 148.965451,46.2146684 148.496881,45.87 C148.028312,45.5253316 147.79403,44.8360052 147.79403,43.802 Z"/>
  </g>
</svg>
