<svg xmlns="http://www.w3.org/2000/svg" width="274" height="47" viewBox="0 0 274 47">
  <g fill="none" fill-rule="evenodd">
    <path fill="#000" d="M0.196,34.59 L0.196,1.643 C0.196,1.23566463 0.376164865,0.90666792 0.7365,0.656 C1.09683513,0.40533208 1.55899718,0.28 2.123,0.28 C2.68700282,0.28 3.15699812,0.40533208 3.533,0.656 C3.90900188,0.90666792 4.097,1.23566463 4.097,1.643 L4.097,34.59 C4.097,34.9346684 3.90116862,35.2558318 3.5095,35.5535 C3.11783137,35.8511682 2.65566933,36 2.123,36 C1.59033067,36 1.13600188,35.8590014 0.76,35.577 C0.38399812,35.2949986 0.196,34.9660019 0.196,34.59 Z M10.254,6.954 C9.78399765,6.48399765 9.549,5.95133631 9.549,5.356 C9.549,4.76066369 9.78399765,4.24366886 10.254,3.805 C10.7240023,3.36633114 11.3036632,3.147 11.993,3.147 C12.6510033,3.147 13.2149976,3.36633114 13.685,3.805 C14.1550023,4.24366886 14.39,4.76066369 14.39,5.356 C14.39,5.95133631 14.1550023,6.47616439 13.685,6.9305 C13.2149976,7.3848356 12.6510033,7.612 11.993,7.612 C11.3349967,7.612 10.7553358,7.39266886 10.254,6.954 Z M10.066,34.59 L10.066,15.085 C10.066,14.6776646 10.2539981,14.3486679 10.63,14.098 C11.0060019,13.8473321 11.4603307,13.722 11.993,13.722 C12.5570028,13.722 13.0269981,13.8473321 13.403,14.098 C13.7790019,14.3486679 13.967,14.6776646 13.967,15.085 L13.967,34.59 C13.967,34.9346684 13.7711686,35.2558318 13.3795,35.5535 C12.9878314,35.8511682 12.5256693,36 11.993,36 C11.4603307,36 11.0060019,35.8590014 10.63,35.577 C10.2539981,35.2949986 10.066,34.9660019 10.066,34.59 Z M17.304,15.32 C17.304,14.8813311 17.5781639,14.4896684 18.1265,14.145 C18.6748361,13.8003316 19.2309972,13.628 19.795,13.628 C20.4530033,13.628 20.8759991,13.8786642 21.064,14.38 L27.033,30.36 L32.908,14.568 C33.1586679,13.9413302 33.5816637,13.628 34.177,13.628 C34.6783358,13.628 35.2266637,13.8003316 35.822,14.145 C36.4173363,14.4896684 36.715,14.8813311 36.715,15.32 C36.715,15.5706679 36.652334,15.8213321 36.527,16.072 L28.819,35.577 C28.5683321,36.1410028 27.9730047,36.423 27.033,36.423 C26.0616618,36.423 25.4506679,36.1410028 25.2,35.577 L17.492,16.072 C17.366666,15.6959981 17.304,15.445334 17.304,15.32 Z M39.206,27.258 L39.206,22.323 C39.206,19.9103213 40.1224908,17.8266754 41.9555,16.072 C43.7885092,14.3173246 45.9896538,13.44 48.559,13.44 C51.0030122,13.44 53.1179911,14.2624918 54.904,15.9075 C56.6900089,17.5525082 57.583,19.6126543 57.583,22.088 C57.583,22.9966712 57.4733344,23.7251639 57.254,24.2735 C57.0346656,24.8218361 56.6978356,25.2134988 56.2435,25.4485 C55.7891644,25.6835012 55.3661686,25.832333 54.9745,25.895 C54.5828314,25.957667 54.0580033,25.989 53.4,25.989 L43.107,25.989 L43.107,27.399 C43.107,29.1223419 43.7258271,30.5009948 44.9635,31.535 C46.2011729,32.5690052 47.8069901,33.086 49.781,33.086 C50.8150052,33.086 51.7158295,32.9293349 52.4835,32.616 C53.2511705,32.3026651 53.8699976,31.9971682 54.34,31.6995 C54.8100023,31.4018318 55.1859986,31.253 55.468,31.253 C55.9066689,31.253 56.2826651,31.4488314 56.596,31.8405 C56.9093349,32.2321686 57.066,32.6316646 57.066,33.039 C57.066,33.7596703 56.3531738,34.4959962 54.9275,35.248 C53.5018262,36.0000038 51.7393438,36.376 49.64,36.376 C46.569318,36.376 44.0626764,35.5378417 42.12,33.8615 C40.1773236,32.1851583 39.206,29.9840136 39.206,27.258 Z M43.107,23.357 L51.802,23.357 C52.6166707,23.357 53.1649986,23.2551677 53.447,23.0515 C53.7290014,22.8478323 53.87,22.4483363 53.87,21.853 C53.87,20.4429929 53.3530052,19.2053387 52.319,18.14 C51.2849948,17.0746613 50.0160075,16.542 48.512,16.542 C47.039326,16.542 45.7703387,17.0354951 44.705,18.0225 C43.6396613,19.0095049 43.107,20.2236595 43.107,21.665 L43.107,23.357 Z M169.819,40.418 C169.819,38.1306552 171.087987,36.4230056 173.626,35.295 C172.027992,34.6996637 171.229,33.6500075 171.229,32.146 C171.229,30.7046595 172.012325,29.5453377 173.579,28.668 C171.792991,27.2266595 170.9,25.2526792 170.9,22.746 L170.9,21.195 C170.9,18.9076552 171.667659,17.0433405 173.203,15.602 C174.738341,14.1606595 176.759321,13.44 179.266,13.44 C181.396677,13.44 183.229659,14.0509939 184.765,15.273 C185.705005,13.2363231 186.770327,12.218 187.961,12.218 C188.462336,12.218 188.869665,12.3668318 189.183,12.6645 C189.496335,12.9621682 189.653,13.2989981 189.653,13.675 C189.653,14.1450023 189.386669,14.5053321 188.854,14.756 C187.788661,15.0380014 186.94267,15.6959948 186.316,16.73 C187.287338,17.8893391 187.773,19.3776576 187.773,21.195 L187.773,22.746 C187.773,25.0020113 186.974008,26.866326 185.376,28.339 C183.777992,29.811674 181.741346,30.548 179.266,30.548 C177.981327,30.548 176.822005,30.3130023 175.788,29.843 C175.004663,30.3130023 174.613,30.8456637 174.613,31.441 C174.613,32.0363363 174.97333,32.4984984 175.694,32.8275 C176.41467,33.1565016 177.307661,33.3601663 178.373,33.4385 C179.438339,33.5168337 180.59766,33.6656656 181.851,33.885 C183.10434,34.1043344 184.263661,34.3863316 185.329,34.731 C186.394339,35.0756684 187.28733,35.6866623 188.008,36.564 C188.72867,37.4413377 189.089,38.5536599 189.089,39.901 C189.089,42.1256778 188.203842,43.8254941 186.4335,45.0005 C184.663158,46.1755059 182.368014,46.763 179.548,46.763 C176.727986,46.763 174.401509,46.1911724 172.5685,45.0475 C170.735491,43.9038276 169.819,42.3606764 169.819,40.418 Z M173.532,39.995 C173.532,41.2170061 174.072495,42.196163 175.1535,42.9325 C176.234505,43.668837 177.683658,44.037 179.501,44.037 C181.255675,44.037 182.657828,43.668837 183.7075,42.9325 C184.757172,42.196163 185.282,41.2170061 185.282,39.995 C185.282,39.4936642 185.195834,39.0550019 185.0235,38.679 C184.851166,38.3029981 184.577002,37.9896679 184.201,37.739 C183.824998,37.4883321 183.449002,37.2768342 183.073,37.1045 C182.696998,36.9321658 182.211336,36.7911672 181.616,36.6815 C181.020664,36.5718328 180.527169,36.4935002 180.1355,36.4465 C179.743831,36.3994998 179.226837,36.344667 178.5845,36.282 C177.942163,36.219333 177.495668,36.1723335 177.245,36.141 C174.769654,36.9556707 173.532,38.2403246 173.532,39.995 Z M174.707,22.699 C174.707,24.2030075 175.122163,25.4406618 175.9525,26.412 C176.782837,27.3833382 177.918659,27.869 179.36,27.869 C180.738674,27.869 181.850996,27.3911714 182.697,26.4355 C183.543004,25.4798286 183.966,24.2500075 183.966,22.746 L183.966,21.195 C183.966,19.7536595 183.543004,18.5473382 182.697,17.576 C181.850996,16.6046618 180.723007,16.119 179.313,16.119 C177.871659,16.119 176.743671,16.5968286 175.929,17.5525 C175.114329,18.5081714 174.707,19.722326 174.707,21.195 L174.707,22.699 Z M193.037,34.59 L193.037,15.085 C193.037,14.6776646 193.217165,14.3486679 193.5775,14.098 C193.937835,13.8473321 194.399997,13.722 194.964,13.722 C195.465336,13.722 195.888332,13.8473321 196.233,14.098 C196.577668,14.3486679 196.75,14.6776646 196.75,15.085 L196.75,17.294 C197.314003,16.2286613 198.144328,15.3200038 199.241,14.568 C200.337672,13.8159962 201.55966,13.44 202.907,13.44 L204.505,13.44 C204.912335,13.44 205.264832,13.6201649 205.5625,13.9805 C205.860168,14.3408351 206.009,14.7559976 206.009,15.226 C206.009,15.6960023 205.860168,16.1033316 205.5625,16.448 C205.264832,16.7926684 204.912335,16.965 204.505,16.965 L202.907,16.965 C201.308992,16.965 199.914673,17.6073269 198.724,18.892 C197.533327,20.1766731 196.938,21.8373231 196.938,23.874 L196.938,34.59 C196.938,34.9346684 196.742169,35.2558318 196.3505,35.5535 C195.958831,35.8511682 195.496669,36 194.964,36 C194.431331,36 193.977002,35.8590014 193.601,35.577 C193.224998,35.2949986 193.037,34.9660019 193.037,34.59 Z M208.359,27.258 L208.359,22.464 C208.359,20.0513213 209.275491,17.9441757 211.1085,16.1425 C212.941509,14.3408243 215.111321,13.44 217.618,13.44 C220.124679,13.44 222.302324,14.3329911 224.151,16.119 C225.999676,17.9050089 226.924,20.0199878 226.924,22.464 L226.924,27.258 C226.924,29.6393452 225.991843,31.7543241 224.1275,33.603 C222.263157,35.4516759 220.093346,36.376 217.618,36.376 C215.142654,36.376 212.980676,35.4595092 211.132,33.6265 C209.283324,31.7934908 208.359,29.6706787 208.359,27.258 Z M212.26,27.258 C212.26,28.730674 212.792661,30.0309944 213.858,31.159 C214.923339,32.2870056 216.176659,32.851 217.618,32.851 C219.090674,32.851 220.359661,32.2791724 221.425,31.1355 C222.490339,29.9918276 223.023,28.6993405 223.023,27.258 L223.023,22.464 C223.023,21.0539929 222.490339,19.7850056 221.425,18.657 C220.359661,17.5289944 219.090674,16.965 217.618,16.965 C216.145326,16.965 214.884172,17.5289944 213.8345,18.657 C212.784828,19.7850056 212.26,21.0539929 212.26,22.464 L212.26,27.258 Z M231.436,27.352 L231.436,15.132 C231.436,14.7559981 231.631831,14.4270014 232.0235,14.145 C232.415169,13.8629986 232.877331,13.722 233.41,13.722 C233.911336,13.722 234.357831,13.8708318 234.7495,14.1685 C235.141169,14.4661682 235.337,14.7873316 235.337,15.132 L235.337,27.352 C235.337,28.762007 235.869661,30.0309944 236.935,31.159 C238.000339,32.2870056 239.269326,32.851 240.742,32.851 C242.183341,32.851 243.436661,32.2948389 244.502,31.1825 C245.567339,30.0701611 246.1,28.7933405 246.1,27.352 L246.1,15.085 C246.1,14.7403316 246.295831,14.4270014 246.6875,14.145 C247.079169,13.8629986 247.541331,13.722 248.074,13.722 C248.638003,13.722 249.100165,13.8551653 249.4605,14.1215 C249.820835,14.3878347 250.001,14.7089981 250.001,15.085 L250.001,27.352 C250.001,29.7646787 249.084509,31.8718243 247.2515,33.6735 C245.418491,35.4751757 243.248679,36.376 240.742,36.376 C238.203987,36.376 236.018509,35.4751757 234.1855,33.6735 C232.352491,31.8718243 231.436,29.7646787 231.436,27.352 Z M255.406,45.353 L255.406,15.085 C255.406,14.6776646 255.586165,14.3486679 255.9465,14.098 C256.306835,13.8473321 256.753331,13.722 257.286,13.722 C257.818669,13.722 258.257332,13.8473321 258.602,14.098 C258.946668,14.3486679 259.119,14.6776646 259.119,15.085 L259.119,17.012 C259.683003,16.0093283 260.513328,15.1633368 261.61,14.474 C262.706672,13.7846632 263.975659,13.44 265.417,13.44 C267.767012,13.44 269.764492,14.3251578 271.4095,16.0955 C273.054508,17.8658422 273.877,19.9886543 273.877,22.464 L273.877,27.258 C273.877,29.6393452 273.046675,31.7543241 271.386,33.603 C269.725325,35.4516759 267.798344,36.376 265.605,36.376 C264.226326,36.376 262.965172,36.0235035 261.8215,35.3185 C260.677828,34.6134965 259.839669,33.7440052 259.307,32.71 L259.307,45.353 C259.307,45.6976684 259.111169,46.0188318 258.7195,46.3165 C258.327831,46.6141682 257.865669,46.763 257.333,46.763 C256.800331,46.763 256.346002,46.6220014 255.97,46.34 C255.593998,46.0579986 255.406,45.7290019 255.406,45.353 Z M259.307,28.527 C259.307,29.3103372 259.847495,30.2268281 260.9285,31.2765 C262.009505,32.3261719 263.239326,32.851 264.618,32.851 C266.028007,32.851 267.273495,32.2791724 268.3545,31.1355 C269.435505,29.9918276 269.976,28.6993405 269.976,27.258 L269.976,22.464 C269.976,21.0539929 269.435505,19.7850056 268.3545,18.657 C267.273495,17.5289944 265.996674,16.965 264.524,16.965 C263.145326,16.965 261.931172,17.4741616 260.8815,18.4925 C259.831828,19.5108384 259.307,20.8346585 259.307,22.464 L259.307,28.527 Z"/>
    <path fill="#ea0000" d="M61.437,28.386 L61.437,5.591 C61.437,5.05833067 61.7503302,4.61183514 62.377,4.2515 C63.0036698,3.89116487 63.6929962,3.711 64.445,3.711 C65.2596707,3.711 65.9724969,3.89116487 66.5835,4.2515 C67.1945031,4.61183514 67.5,5.05833067 67.5,5.591 L67.5,13.675 L73.046,13.675 C73.5160023,13.675 73.8919986,13.8943311 74.174,14.333 C74.4560014,14.7716689 74.597,15.2886637 74.597,15.884 C74.597,16.4793363 74.4560014,16.9963311 74.174,17.435 C73.8919986,17.8736689 73.5160023,18.093 73.046,18.093 L67.5,18.093 L67.5,28.386 C67.5,29.2946712 67.6958314,29.9369981 68.0875,30.313 C68.4791686,30.6890019 69.1606618,30.877 70.132,30.877 L71.965,30.877 C72.7796707,30.877 73.4141644,31.1276642 73.8685,31.629 C74.3228356,32.1303358 74.55,32.7256632 74.55,33.415 C74.55,34.1356703 74.3228356,34.7466642 73.8685,35.248 C73.4141644,35.7493358 72.7796707,36 71.965,36 L70.132,36 C64.3353043,36 61.437,33.4620254 61.437,28.386 Z M77.464,5.732 C77.464,4.91732926 77.7851635,4.22016956 78.4275,3.6405 C79.0698365,3.06083043 79.8609953,2.771 80.801,2.771 C81.7096712,2.771 82.4851635,3.06083043 83.1275,3.6405 C83.7698365,4.22016956 84.091,4.91732926 84.091,5.732 C84.091,6.51533725 83.7698365,7.20466369 83.1275,7.8 C82.4851635,8.39533631 81.7096712,8.693 80.801,8.693 C79.8609953,8.693 79.0698365,8.39533631 78.4275,7.8 C77.7851635,7.20466369 77.464,6.51533725 77.464,5.732 Z M77.793,34.073 L77.793,15.555 C77.793,14.9909972 78.0749972,14.5366684 78.639,14.192 C79.2030028,13.8473316 79.9236623,13.675 80.801,13.675 C81.6783377,13.675 82.4068304,13.8473316 82.9865,14.192 C83.5661696,14.5366684 83.856,14.9909972 83.856,15.555 L83.856,34.073 C83.856,34.5430023 83.5505031,34.9816646 82.9395,35.389 C82.3284969,35.7963354 81.6156707,36 80.801,36 C79.9549958,36 79.2421696,35.8041686 78.6625,35.4125 C78.0828304,35.0208314 77.793,34.5743358 77.793,34.073 Z M87.804,26.788 L87.804,23.028 C87.804,20.1453189 88.6499915,17.8188422 90.342,16.0485 C92.0340085,14.2781578 94.5719831,13.393 97.956,13.393 C100.086677,13.393 101.872659,13.7689962 103.314,14.521 C104.755341,15.2730038 105.476,16.1189953 105.476,17.059 C105.476,17.7170033 105.241002,18.3749967 104.771,19.033 C104.300998,19.6910033 103.737003,20.02 103.079,20.02 C102.890999,20.02 102.334838,19.8006689 101.4105,19.362 C100.486162,18.9233311 99.4913387,18.704 98.426,18.704 C95.3866515,18.704 93.867,20.1453189 93.867,23.028 L93.867,26.788 C93.867,29.6706811 95.402318,31.112 98.473,31.112 C99.5383387,31.112 100.525329,30.8770024 101.434,30.407 C102.342671,29.9369977 102.922332,29.702 103.173,29.702 C103.925004,29.702 104.543831,30.0153302 105.0295,30.642 C105.515169,31.2686698 105.758,31.9109967 105.758,32.569 C105.758,33.5403382 104.998174,34.425496 103.4785,35.2245 C101.958826,36.023504 100.133677,36.423 98.003,36.423 C94.5876496,36.423 92.0340085,35.5456754 90.342,33.791 C88.6499915,32.0363246 87.804,29.7020146 87.804,26.788 Z M109.001,34.073 L109.001,2.536 C109.001,1.97199718 109.275164,1.51766839 109.8235,1.173 C110.371836,0.82833161 111.084662,0.656 111.962,0.656 C112.839338,0.656 113.575664,0.82833161 114.171,1.173 C114.766336,1.51766839 115.064,1.97199718 115.064,2.536 L115.064,22.229 L123.9,13.91 C124.276002,13.5966651 124.683331,13.44 125.122,13.44 C125.780003,13.44 126.437997,13.7533302 127.096,14.38 C127.754003,15.0066698 128.083,15.6646632 128.083,16.354 C128.083,16.7613354 127.910668,17.1373316 127.566,17.482 L122.02,22.511 L128.929,32.381 C129.148334,32.6943349 129.258,33.0233316 129.258,33.368 C129.258,34.0573368 128.874171,34.7309967 128.1065,35.389 C127.338829,36.0470033 126.579004,36.376 125.827,36.376 C125.20033,36.376 124.699002,36.1096693 124.323,35.577 L117.978,26.224 L115.064,28.903 L115.064,34.073 C115.064,34.5430023 114.75067,34.9816646 114.124,35.389 C113.49733,35.7963354 112.776671,36 111.962,36 C111.115996,36 110.411003,35.8041686 109.847,35.4125 C109.282997,35.0208314 109.001,34.5743358 109.001,34.073 Z M131.232,26.788 L131.232,22.793 C131.232,20.2236538 132.234657,18.0146759 134.24,16.166 C136.245343,14.3173241 138.673652,13.393 141.525,13.393 C144.188347,13.393 146.467824,14.2311583 148.3635,15.9075 C150.259176,17.5838417 151.207,19.6909873 151.207,22.229 C151.207,23.1690047 151.089501,23.9444969 150.8545,24.5555 C150.619499,25.1665031 150.259169,25.5973321 149.7735,25.848 C149.287831,26.0986679 148.841335,26.255333 148.434,26.318 C148.026665,26.380667 147.494003,26.412 146.836,26.412 L137.295,26.412 L137.295,27.117 C137.295,28.4643401 137.796328,29.5531625 138.799,30.3835 C139.801672,31.2138375 141.133325,31.629 142.794,31.629 C143.984673,31.629 145.159661,31.3313363 146.319,30.736 C147.478339,30.1406637 148.230332,29.843 148.575,29.843 C149.233003,29.843 149.781331,30.1484969 150.22,30.7595 C150.658669,31.3705031 150.878,31.9579972 150.878,32.522 C150.878,33.3993377 150.086841,34.268829 148.5045,35.1305 C146.922159,35.992171 144.956012,36.423 142.606,36.423 C139.253317,36.423 136.519511,35.5378422 134.4045,33.7675 C132.289489,31.9971578 131.232,29.6706811 131.232,26.788 Z M137.295,22.84 L144.157,22.84 C144.658336,22.84 145.010832,22.7538342 145.2145,22.5815 C145.418168,22.4091658 145.52,22.0723358 145.52,21.571 C145.52,20.4743278 145.120504,19.5813368 144.3215,18.892 C143.522496,18.2026632 142.543339,17.858 141.384,17.858 C140.287328,17.858 139.331671,18.19483 138.517,18.8685 C137.702329,19.54217 137.295,20.4273278 137.295,21.524 L137.295,22.84 Z M154.779,28.386 L154.779,5.591 C154.779,5.05833067 155.09233,4.61183514 155.719,4.2515 C156.34567,3.89116487 157.034996,3.711 157.787,3.711 C158.601671,3.711 159.314497,3.89116487 159.9255,4.2515 C160.536503,4.61183514 160.842,5.05833067 160.842,5.591 L160.842,13.675 L166.388,13.675 C166.858002,13.675 167.233999,13.8943311 167.516,14.333 C167.798001,14.7716689 167.939,15.2886637 167.939,15.884 C167.939,16.4793363 167.798001,16.9963311 167.516,17.435 C167.233999,17.8736689 166.858002,18.093 166.388,18.093 L160.842,18.093 L160.842,28.386 C160.842,29.2946712 161.037831,29.9369981 161.4295,30.313 C161.821169,30.6890019 162.502662,30.877 163.474,30.877 L165.307,30.877 C166.121671,30.877 166.756164,31.1276642 167.2105,31.629 C167.664836,32.1303358 167.892,32.7256632 167.892,33.415 C167.892,34.1356703 167.664836,34.7466642 167.2105,35.248 C166.756164,35.7493358 166.121671,36 165.307,36 L163.474,36 C157.677304,36 154.779,33.4620254 154.779,28.386 Z"/>
  </g>
</svg>
