<svg xmlns="http://www.w3.org/2000/svg" width="319" height="37" viewBox="0 0 319 37">
  <g fill="none" fill-rule="evenodd" transform="translate(-.003)">
    <path fill="#333" d="M0.195402439,34.59 L0.195402439,1.643 C0.195402439,1.23566463 0.375018021,0.90666792 0.734254573,0.656 C1.09349113,0.40533208 1.55424414,0.28 2.11652744,0.28 C2.67881074,0.28 3.14737313,0.40533208 3.52222866,0.656 C3.89708419,0.90666792 4.08450915,1.23566463 4.08450915,1.643 L4.08450915,34.59 C4.08450915,34.9346684 3.88927482,35.2558318 3.4988003,35.5535 C3.10832579,35.8511682 2.64757278,36 2.11652744,36 C1.5854821,36 1.13253846,35.8590014 0.757682927,35.577 C0.382827394,35.2949986 0.195402439,34.9660019 0.195402439,34.59 Z M10.2227378,6.954 C9.75416839,6.48399765 9.5198872,5.95133631 9.5198872,5.356 C9.5198872,4.76066369 9.75416839,4.24366886 10.2227378,3.805 C10.6913072,3.36633114 11.2692008,3.147 11.956436,3.147 C12.6124332,3.147 13.174708,3.36633114 13.6432774,3.805 C14.1118469,4.24366886 14.346128,4.76066369 14.346128,5.356 C14.346128,5.95133631 14.1118469,6.47616439 13.6432774,6.9305 C13.174708,7.3848356 12.6124332,7.612 11.956436,7.612 C11.3004388,7.612 10.7225452,7.39266886 10.2227378,6.954 Z M10.035311,34.59 L10.035311,15.085 C10.035311,14.6776646 10.2227359,14.3486679 10.5975915,14.098 C10.972447,13.8473321 11.4253906,13.722 11.956436,13.722 C12.5187193,13.722 12.9872817,13.8473321 13.3621372,14.098 C13.7369927,14.3486679 13.9244177,14.6776646 13.9244177,15.085 L13.9244177,34.59 C13.9244177,34.9346684 13.7291834,35.2558318 13.3387088,35.5535 C12.9482343,35.8511682 12.4874813,36 11.956436,36 C11.4253906,36 10.972447,35.8590014 10.5975915,35.577 C10.2227359,35.2949986 10.035311,34.9660019 10.035311,34.59 Z M17.2512439,15.32 C17.2512439,14.8813311 17.524572,14.4896684 18.0712363,14.145 C18.6179006,13.8003316 19.1723661,13.628 19.7346494,13.628 C20.3906466,13.628 20.8123527,13.8786642 20.9997805,14.38 L26.9505823,30.36 L32.8076707,14.568 C33.0575744,13.9413302 33.4792806,13.628 34.0728018,13.628 C34.5726092,13.628 35.1192653,13.8003316 35.7127866,14.145 C36.3063078,14.4896684 36.603064,14.8813311 36.603064,15.32 C36.603064,15.5706679 36.540589,15.8213321 36.4156372,16.072 L28.7311372,35.577 C28.4812335,36.1410028 27.8877211,36.423 26.9505823,36.423 C25.9822055,36.423 25.3730744,36.1410028 25.1231707,35.577 L17.4386707,16.072 C17.3137189,15.6959981 17.2512439,15.445334 17.2512439,15.32 Z M39.0864695,27.258 L39.0864695,22.323 C39.0864695,19.9103213 40.0001662,17.8266754 41.8275869,16.072 C43.6550076,14.3173246 45.8494415,13.44 48.4109543,13.44 C50.8475152,13.44 52.956046,14.2624918 54.7366098,15.9075 C56.5171735,17.5525082 57.4074421,19.6126543 57.4074421,22.088 C57.4074421,22.9966712 57.2981108,23.7251639 57.0794451,24.2735 C56.8607794,24.8218361 56.5249764,25.2134988 56.0720259,25.4485 C55.6190755,25.6835012 55.1973693,25.832333 54.8068948,25.895 C54.4164203,25.957667 53.8931923,25.989 53.2371951,25.989 L42.9755762,25.989 L42.9755762,27.399 C42.9755762,29.1223419 43.5925167,30.5009948 44.8264162,31.535 C46.0603156,32.5690052 47.6612371,33.086 49.6292287,33.086 C50.6600814,33.086 51.5581593,32.9293349 52.3234893,32.616 C53.0888194,32.3026651 53.7057599,31.9971682 54.1743293,31.6995 C54.6428987,31.4018318 55.0177486,31.253 55.2988902,31.253 C55.7362217,31.253 56.1110716,31.4488314 56.4234512,31.8405 C56.7358308,32.2321686 56.8920183,32.6316646 56.8920183,33.039 C56.8920183,33.7596703 56.1813653,34.4959962 54.7600381,35.248 C53.3387109,36.0000038 51.5816019,36.376 49.4886585,36.376 C46.4273384,36.376 43.928339,35.5378417 41.9915854,33.8615 C40.0548318,32.1851583 39.0864695,29.9840136 39.0864695,27.258 Z M42.9755762,23.357 L51.6440671,23.357 C52.4562541,23.357 53.0029102,23.2551677 53.2840518,23.0515 C53.5651935,22.8478323 53.7057622,22.4483363 53.7057622,21.853 C53.7057622,20.4429929 53.1903436,19.2053387 52.1594909,18.14 C51.1286381,17.0746613 49.8635197,16.542 48.3640976,16.542 C46.8959134,16.542 45.6307949,17.0354951 44.5687043,18.0225 C43.5066136,19.0095049 42.9755762,20.2236595 42.9755762,21.665 L42.9755762,23.357 Z M202.803805,28.903 L202.803805,4.698 C202.803805,4.32199812 203.006849,4.00083466 203.412942,3.7345 C203.819036,3.46816533 204.25636,3.335 204.72493,3.335 C205.224737,3.335 205.677681,3.46816533 206.083774,3.7345 C206.489868,4.00083466 206.692912,4.32199812 206.692912,4.698 L206.692912,13.722 L212.596857,13.722 C212.940474,13.722 213.221612,13.8786651 213.440277,14.192 C213.658943,14.5053349 213.768274,14.8656646 213.768274,15.273 C213.768274,15.6803354 213.658943,16.0328318 213.440277,16.3305 C213.221612,16.6281682 212.940474,16.777 212.596857,16.777 L206.692912,16.777 L206.692912,28.903 C206.692912,30.2503401 206.981858,31.1981639 207.559761,31.7465 C208.137663,32.2948361 209.145072,32.569 210.582018,32.569 L212.034576,32.569 C212.565622,32.569 212.979518,32.7334984 213.276279,33.0625 C213.57304,33.3915016 213.721418,33.7909976 213.721418,34.261 C213.721418,34.7310023 213.56523,35.1383316 213.252851,35.483 C212.940471,35.8276684 212.534384,36 212.034576,36 L210.582018,36 C205.396517,36 202.803805,33.634357 202.803805,28.903 Z M217.610524,6.954 C217.141955,6.48399765 216.907674,5.95133631 216.907674,5.356 C216.907674,4.76066369 217.141955,4.24366886 217.610524,3.805 C218.079094,3.36633114 218.656987,3.147 219.344223,3.147 C220.00022,3.147 220.562495,3.36633114 221.031064,3.805 C221.499633,4.24366886 221.733915,4.76066369 221.733915,5.356 C221.733915,5.95133631 221.499633,6.47616439 221.031064,6.9305 C220.562495,7.3848356 220.00022,7.612 219.344223,7.612 C218.688225,7.612 218.110332,7.39266886 217.610524,6.954 Z M217.423098,34.59 L217.423098,15.085 C217.423098,14.6776646 217.610523,14.3486679 217.985378,14.098 C218.360234,13.8473321 218.813177,13.722 219.344223,13.722 C219.906506,13.722 220.375068,13.8473321 220.749924,14.098 C221.124779,14.3486679 221.312204,14.6776646 221.312204,15.085 L221.312204,34.59 C221.312204,34.9346684 221.11697,35.2558318 220.726495,35.5535 C220.336021,35.8511682 219.875268,36 219.344223,36 C218.813177,36 218.360234,35.8590014 217.985378,35.577 C217.610523,35.2949986 217.423098,34.9660019 217.423098,34.59 Z M226.044732,27.258 L226.044732,22.558 C226.044732,19.8633199 226.833478,17.6700085 228.410995,15.978 C229.988512,14.2859915 232.307896,13.44 235.369216,13.44 C237.30597,13.44 238.938129,13.7846632 240.265742,14.474 C241.593356,15.1633368 242.257152,15.8996627 242.257152,16.683 C242.257152,17.1216689 242.093156,17.5524979 241.765157,17.9755 C241.437158,18.3985021 241.054499,18.61 240.617168,18.61 C240.492216,18.61 239.953369,18.3358361 239.000611,17.7875 C238.047853,17.2391639 236.931113,16.965 235.650357,16.965 C233.776079,16.965 232.354773,17.4506618 231.386396,18.422 C230.41802,19.3933382 229.933838,20.7719911 229.933838,22.558 L229.933838,27.258 C229.933838,30.9866853 231.854944,32.851 235.697213,32.851 C237.009208,32.851 238.149376,32.5690028 239.117753,32.005 C240.08613,31.4409972 240.648405,31.159 240.804595,31.159 C241.304402,31.159 241.718299,31.3626646 242.046297,31.77 C242.374296,32.1773354 242.538293,32.6003311 242.538293,33.039 C242.538293,33.8223372 241.851068,34.5743297 240.476598,35.295 C239.102127,36.0156703 237.415303,36.376 235.416073,36.376 C232.323515,36.376 229.988512,35.5378417 228.410995,33.8615 C226.833478,32.1851583 226.044732,29.9840136 226.044732,27.258 Z M246.427399,34.59 L246.427399,1.643 C246.427399,1.23566463 246.607015,0.90666792 246.966252,0.656 C247.325488,0.40533208 247.786241,0.28 248.348524,0.28 C248.910808,0.28 249.37937,0.40533208 249.754226,0.656 C250.129081,0.90666792 250.316506,1.23566463 250.316506,1.643 L250.316506,23.639 L260.999835,13.957 C261.280977,13.7376656 261.562114,13.628 261.843256,13.628 C262.311826,13.628 262.75696,13.8159981 263.178672,14.192 C263.600385,14.5680019 263.811238,14.9909976 263.811238,15.461 C263.811238,15.8370019 263.670669,16.1503321 263.389527,16.401 L256.876445,22.182 L264.654659,33.509 C264.810848,33.7596679 264.888942,33.9946656 264.888942,34.214 C264.888942,34.6840023 264.654661,35.1304979 264.186091,35.5535 C263.717522,35.9765021 263.233341,36.188 262.733534,36.188 C262.296202,36.188 261.936971,35.9843354 261.655829,35.577 L254.205613,24.626 L250.316506,28.104 L250.316506,34.59 C250.316506,34.9346684 250.121272,35.2558318 249.730797,35.5535 C249.340323,35.8511682 248.87957,36 248.348524,36 C247.817479,36 247.364535,35.8590014 246.98968,35.577 C246.614824,35.2949986 246.427399,34.9660019 246.427399,34.59 Z M267.419204,27.258 L267.419204,22.323 C267.419204,19.9103213 268.332901,17.8266754 270.160322,16.072 C271.987742,14.3173246 274.182176,13.44 276.743689,13.44 C279.18025,13.44 281.288781,14.2624918 283.069345,15.9075 C284.849908,17.5525082 285.740177,19.6126543 285.740177,22.088 C285.740177,22.9966712 285.630846,23.7251639 285.41218,24.2735 C285.193514,24.8218361 284.857711,25.2134988 284.404761,25.4485 C283.95181,25.6835012 283.530104,25.832333 283.13963,25.895 C282.749155,25.957667 282.225927,25.989 281.56993,25.989 L271.308311,25.989 L271.308311,27.399 C271.308311,29.1223419 271.925251,30.5009948 273.159151,31.535 C274.39305,32.5690052 275.993972,33.086 277.961963,33.086 C278.992816,33.086 279.890894,32.9293349 280.656224,32.616 C281.421554,32.3026651 282.038495,31.9971682 282.507064,31.6995 C282.975633,31.4018318 283.350483,31.253 283.631625,31.253 C284.068956,31.253 284.443806,31.4488314 284.756186,31.8405 C285.068566,32.2321686 285.224753,32.6316646 285.224753,33.039 C285.224753,33.7596703 284.5141,34.4959962 283.092773,35.248 C281.671446,36.0000038 279.914337,36.376 277.821393,36.376 C274.760073,36.376 272.261074,35.5378417 270.32432,33.8615 C268.387567,32.1851583 267.419204,29.9840136 267.419204,27.258 Z M271.308311,23.357 L279.976802,23.357 C280.788989,23.357 281.335645,23.2551677 281.616787,23.0515 C281.897928,22.8478323 282.038497,22.4483363 282.038497,21.853 C282.038497,20.4429929 281.523078,19.2053387 280.492226,18.14 C279.461373,17.0746613 278.196254,16.542 276.696832,16.542 C275.228648,16.542 273.96353,17.0354951 272.901439,18.0225 C271.839348,19.0095049 271.308311,20.2236595 271.308311,21.665 L271.308311,23.357 Z M289.95728,28.903 L289.95728,4.698 C289.95728,4.32199812 290.160324,4.00083466 290.566418,3.7345 C290.972511,3.46816533 291.409836,3.335 291.878405,3.335 C292.378213,3.335 292.831157,3.46816533 293.23725,3.7345 C293.643343,4.00083466 293.846387,4.32199812 293.846387,4.698 L293.846387,13.722 L299.750332,13.722 C300.09395,13.722 300.375087,13.8786651 300.593753,14.192 C300.812419,14.5053349 300.92175,14.8656646 300.92175,15.273 C300.92175,15.6803354 300.812419,16.0328318 300.593753,16.3305 C300.375087,16.6281682 300.09395,16.777 299.750332,16.777 L293.846387,16.777 L293.846387,28.903 C293.846387,30.2503401 294.135334,31.1981639 294.713236,31.7465 C295.291139,32.2948361 296.298548,32.569 297.735494,32.569 L299.188052,32.569 C299.719097,32.569 300.132994,32.7334984 300.429755,33.0625 C300.726515,33.3915016 300.874893,33.7909976 300.874893,34.261 C300.874893,34.7310023 300.718706,35.1383316 300.406326,35.483 C300.093947,35.8276684 299.687859,36 299.188052,36 L297.735494,36 C292.549992,36 289.95728,33.634357 289.95728,28.903 Z M303.217729,32.804 C303.217729,32.3966646 303.350488,31.9971686 303.616011,31.6055 C303.881533,31.2138314 304.201718,31.018 304.576573,31.018 C304.826477,31.018 305.185708,31.2059981 305.654277,31.582 C306.122847,31.9580019 306.794453,32.3261649 307.669116,32.6865 C308.543779,33.0468351 309.574616,33.227 310.761659,33.227 C312.323557,33.227 313.455916,32.9450028 314.15877,32.381 C314.861624,31.8169972 315.213046,31.1120042 315.213046,30.266 C315.213046,29.2319948 314.822577,28.4095031 314.041628,27.7985 C313.260679,27.1874969 312.307936,26.7253349 311.183369,26.412 C310.058802,26.0986651 308.934253,25.7540019 307.809686,25.378 C306.685119,25.0019981 305.732376,24.3753377 304.951427,23.498 C304.170478,22.6206623 303.780009,21.4613405 303.780009,20.02 C303.780009,18.2339911 304.412568,16.6908398 305.677706,15.3905 C306.942843,14.0901602 308.871758,13.44 311.464509,13.44 C313.120121,13.44 314.635139,13.6984974 316.00961,14.2155 C317.38408,14.7325026 318.071305,15.3199967 318.071305,15.978 C318.071305,16.3540019 317.922927,16.7769976 317.626166,17.247 C317.329406,17.7170023 316.962365,17.952 316.525034,17.952 C316.400082,17.952 315.79876,17.7248356 314.72105,17.2705 C313.643341,16.8161644 312.573457,16.589 311.511366,16.589 C310.07442,16.589 309.004536,16.92583 308.301681,17.5995 C307.598827,18.27317 307.247405,19.0329958 307.247405,19.879 C307.247405,20.7563377 307.637874,21.4456642 308.418823,21.947 C309.199772,22.4483358 310.160325,22.8399986 311.300511,23.122 C312.440696,23.4040014 313.573055,23.7486646 314.697622,24.156 C315.822189,24.5633354 316.774932,25.2604951 317.555881,26.2475 C318.33683,27.2345049 318.727299,28.5113255 318.727299,30.078 C318.727299,32.0206764 318.040074,33.5559944 316.665604,34.684 C315.291133,35.8120056 313.370028,36.376 310.902229,36.376 C308.778047,36.376 306.966273,35.9921705 305.466851,35.2245 C303.967428,34.4568295 303.217729,33.6500042 303.217729,32.804 Z"/>
    <path fill="#C8341E" fill-rule="nonzero" d="M61.3434055,34.12 L61.3434055,9.868 C61.3434055,7.26732033 62.1477709,5.08184218 63.7565259,3.3115 C65.3652809,1.54115781 67.3098148,0.656 69.590186,0.656 L72.3547317,0.656 C73.0732048,0.656 73.6354797,0.90666416 74.0415732,1.408 C74.4476667,1.90933584 74.6507104,2.50466322 74.6507104,3.194 C74.6507104,3.91467027 74.4476667,4.52566416 74.0415732,5.027 C73.6354797,5.52833584 73.0732048,5.779 72.3547317,5.779 L70.8553171,5.779 C69.8244644,5.779 68.9888614,6.0923302 68.3484832,6.719 C67.708105,7.3456698 67.3879207,8.17599483 67.3879207,9.21 L67.3879207,13.675 L73.104439,13.675 C73.5730084,13.675 73.9478584,13.8943311 74.229,14.333 C74.5101416,14.7716689 74.6507104,15.2886637 74.6507104,15.884 C74.6507104,16.4793363 74.5101416,16.9963311 74.229,17.435 C73.9478584,17.8736689 73.5730084,18.093 73.104439,18.093 L67.3879207,18.093 L67.3879207,34.12 C67.3879207,34.6840028 67.0833552,35.1383316 66.4742149,35.483 C65.8650747,35.8276684 65.138803,36 64.295378,36 C63.4519531,36 62.7491095,35.8276684 62.1868262,35.483 C61.6245429,35.1383316 61.3434055,34.6840028 61.3434055,34.12 Z M76.3844085,26.788 L76.3844085,22.793 C76.3844085,20.2236538 77.3840083,18.0146759 79.3832378,16.166 C81.3824673,14.3173241 83.803373,13.393 86.6460274,13.393 C89.3012541,13.393 91.5737817,14.2311583 93.4636784,15.9075 C95.353575,17.5838417 96.2985091,19.6909873 96.2985091,22.229 C96.2985091,23.1690047 96.1813685,23.9444969 95.9470838,24.5555 C95.7127991,25.1665031 95.353568,25.5973321 94.8693796,25.848 C94.3851912,26.0986679 93.9400569,26.255333 93.5339634,26.318 C93.1278699,26.380667 92.5968325,26.412 91.9408354,26.412 L82.4289238,26.412 L82.4289238,27.117 C82.4289238,28.4643401 82.9287237,29.5531625 83.9283384,30.3835 C84.9279532,31.2138375 86.2555466,31.629 87.9111585,31.629 C89.0982011,31.629 90.269607,31.3313363 91.4254116,30.736 C92.5812161,30.1406637 93.330916,29.843 93.6745335,29.843 C94.3305307,29.843 94.8771868,30.1484969 95.3145183,30.7595 C95.7518497,31.3705031 95.9705122,31.9579972 95.9705122,32.522 C95.9705122,33.3993377 95.1817655,34.268829 93.6042485,35.1305 C92.0267314,35.992171 90.0665788,36.423 87.7237317,36.423 C84.3812699,36.423 81.6557987,35.5378422 79.5472363,33.7675 C77.4386739,31.9971578 76.3844085,29.6706811 76.3844085,26.788 Z M82.4289238,22.84 L89.270003,22.84 C89.7698104,22.84 90.1212322,22.7538342 90.324279,22.5815 C90.5273257,22.4091658 90.6288476,22.0723358 90.6288476,21.571 C90.6288476,20.4743278 90.2305695,19.5813368 89.4340015,18.892 C88.6374335,18.2026632 87.6612619,17.858 86.5054573,17.858 C85.4121287,17.858 84.4593852,18.19483 83.6471982,18.8685 C82.8350112,19.54217 82.4289238,20.4273278 82.4289238,21.524 L82.4289238,22.84 Z M98.6413445,32.381 C98.6413445,31.8169972 98.8443882,31.2295031 99.2504817,30.6185 C99.6565752,30.0074969 100.125138,29.702 100.656183,29.702 C100.9998,29.702 101.429316,29.8743316 101.944742,30.219 C102.460169,30.5636684 103.139584,30.9161649 103.983009,31.2765 C104.826434,31.6368351 105.826034,31.817 106.981838,31.817 C109.26221,31.817 110.402378,31.1433401 110.402378,29.796 C110.402378,29.0439962 110.019719,28.4486689 109.254389,28.01 C108.489059,27.5713311 107.567553,27.2110014 106.489843,26.929 C105.412133,26.6469986 104.32663,26.3101686 103.233302,25.9185 C102.139973,25.5268314 101.210658,24.868838 100.445328,23.9445 C99.6799977,23.020162 99.2973384,21.8373405 99.2973384,20.396 C99.2973384,18.4846571 99.9689445,16.8396736 101.312177,15.461 C102.655409,14.0823264 104.779559,13.393 107.684689,13.393 C109.621443,13.393 111.347314,13.6906637 112.862355,14.286 C114.377396,14.8813363 115.134905,15.6019958 115.134905,16.448 C115.134905,16.9806693 114.924052,17.5994965 114.50234,18.3045 C114.080627,19.0095035 113.557399,19.362 112.93264,19.362 C112.682737,19.362 112.003321,19.1348356 110.894373,18.6805 C109.785426,18.2261644 108.746779,17.999 107.778402,17.999 C106.716312,17.999 105.904137,18.2183311 105.341854,18.657 C104.77957,19.0956689 104.498433,19.5813307 104.498433,20.114 C104.498433,20.6466693 104.77957,21.0853316 105.341854,21.43 C105.904137,21.7746684 106.599171,22.0409991 107.426977,22.229 C108.254783,22.4170009 109.152861,22.6754984 110.121238,23.0045 C111.089615,23.3335016 111.987693,23.7173311 112.815498,24.156 C113.643304,24.5946689 114.338339,25.276162 114.900622,26.2005 C115.462905,27.124838 115.744043,28.2449934 115.744043,29.561 C115.744043,31.6916773 114.986533,33.3679939 113.471492,34.59 C111.956451,35.8120061 109.840111,36.423 107.122409,36.423 C104.779561,36.423 102.780362,36.0156707 101.12475,35.201 C99.4691381,34.3863293 98.6413445,33.4463387 98.6413445,32.381 Z M119.258296,28.386 L119.258296,5.591 C119.258296,5.05833067 119.570671,4.61183514 120.19543,4.2515 C120.820189,3.89116487 121.507414,3.711 122.257125,3.711 C123.069312,3.711 123.779965,3.89116487 124.389105,4.2515 C124.998245,4.61183514 125.302811,5.05833067 125.302811,5.591 L125.302811,13.675 L130.831902,13.675 C131.300472,13.675 131.675322,13.8943311 131.956463,14.333 C132.237605,14.7716689 132.378174,15.2886637 132.378174,15.884 C132.378174,16.4793363 132.237605,16.9963311 131.956463,17.435 C131.675322,17.8736689 131.300472,18.093 130.831902,18.093 L125.302811,18.093 L125.302811,28.386 C125.302811,29.2946712 125.498045,29.9369981 125.88852,30.313 C126.278994,30.6890019 126.95841,30.877 127.926787,30.877 L129.754198,30.877 C130.566385,30.877 131.198944,31.1276642 131.651895,31.629 C132.104845,32.1303358 132.331317,32.7256632 132.331317,33.415 C132.331317,34.1356703 132.104845,34.7466642 131.651895,35.248 C131.198944,35.7493358 130.566385,36 129.754198,36 L127.926787,36 C122.147764,36 119.258296,33.4620254 119.258296,28.386 Z M135.236433,5.732 C135.236433,4.91732926 135.556617,4.22016956 136.196995,3.6405 C136.837374,3.06083043 137.62612,2.771 138.563259,2.771 C139.46916,2.771 140.242288,3.06083043 140.882666,3.6405 C141.523044,4.22016956 141.843229,4.91732926 141.843229,5.732 C141.843229,6.51533725 141.523044,7.20466369 140.882666,7.8 C140.242288,8.39533631 139.46916,8.693 138.563259,8.693 C137.62612,8.693 136.837374,8.39533631 136.196995,7.8 C135.556617,7.20466369 135.236433,6.51533725 135.236433,5.732 Z M135.56443,34.073 L135.56443,15.555 C135.56443,14.9909972 135.845567,14.5366684 136.407851,14.192 C136.970134,13.8473316 137.688596,13.675 138.563259,13.675 C139.437922,13.675 140.164194,13.8473316 140.742096,14.192 C141.319998,14.5366684 141.608945,14.9909972 141.608945,15.555 L141.608945,34.073 C141.608945,34.5430023 141.30438,34.9816646 140.695239,35.389 C140.086099,35.7963354 139.375446,36 138.563259,36 C137.719834,36 137.009181,35.8041686 136.431279,35.4125 C135.853377,35.0208314 135.56443,34.5743358 135.56443,34.073 Z M144.232921,15.978 C144.232921,15.3199967 144.693674,14.7246693 145.615194,14.192 C146.536713,13.6593307 147.419173,13.393 148.262598,13.393 C149.168498,13.393 149.762011,13.7376632 150.043152,14.427 L155.244247,28.057 L160.445341,14.521 C160.726483,13.7689962 161.304377,13.393 162.17904,13.393 C162.928751,13.393 163.787782,13.6671639 164.756159,14.2155 C165.724535,14.7638361 166.208716,15.3669967 166.208716,16.025 C166.208716,16.3070014 166.146241,16.5733321 166.02129,16.824 L158.008793,35.436 C157.665175,36.1566703 156.743669,36.517 155.244247,36.517 C153.744825,36.517 152.838938,36.1566703 152.526558,35.436 L144.467204,16.824 C144.311014,16.6046656 144.232921,16.3226684 144.232921,15.978 Z M167.520704,30.172 C167.520704,27.6339873 168.457829,25.8480052 170.332107,24.814 C172.206384,23.7799948 174.908427,23.263 178.438317,23.263 L180.359442,23.263 L180.359442,22.652 C180.359442,21.4926609 180.023639,20.482171 179.352023,19.6205 C178.680407,18.758829 177.64176,18.328 176.236052,18.328 C174.830344,18.328 173.6277,18.5708309 172.628085,19.0565 C171.628471,19.5421691 171.050577,19.785 170.894387,19.785 C170.269628,19.785 169.769828,19.4716698 169.394973,18.845 C169.020117,18.2183302 168.832692,17.5290038 168.832692,16.777 C168.832692,15.8683288 169.637058,15.07717 171.245812,14.4035 C172.854567,13.72983 174.549201,13.393 176.329765,13.393 C179.734703,13.393 182.26494,14.2624913 183.920552,16.0015 C185.576164,17.7405087 186.403957,19.9259868 186.403957,22.558 L186.403957,34.073 C186.403957,34.6056693 186.12282,35.0599981 185.560537,35.436 C184.998253,35.8120019 184.29541,36 183.451985,36 C182.671036,36 182.022858,35.8120019 181.507431,35.436 C180.992005,35.0599981 180.734296,34.6056693 180.734296,34.073 L180.734296,32.71 C178.578876,35.1853457 176.204827,36.423 173.612076,36.423 C171.831512,36.423 170.37116,35.8903387 169.230974,34.825 C168.090789,33.7596613 167.520704,32.2086769 167.520704,30.172 Z M173.56522,29.373 C173.56522,30.2190042 173.791691,30.8534979 174.244642,31.2765 C174.697592,31.6995021 175.298914,31.911 176.048625,31.911 C177.04824,31.911 178.016602,31.4410047 178.953741,30.501 C179.89088,29.5609953 180.359442,28.5270056 180.359442,27.399 L180.359442,26.412 L179.656591,26.412 C177.751076,26.412 176.259486,26.6078314 175.181776,26.9995 C174.104066,27.3911686 173.56522,28.1823274 173.56522,29.373 Z M191.323912,34.073 L191.323912,2.536 C191.323912,1.97199718 191.59724,1.51766839 192.143904,1.173 C192.690568,0.82833161 193.41684,0.656 194.322741,0.656 C195.166166,0.656 195.884628,0.82833161 196.478149,1.173 C197.071671,1.51766839 197.368427,1.97199718 197.368427,2.536 L197.368427,34.073 C197.368427,34.5430023 197.063861,34.9816646 196.454721,35.389 C195.845581,35.7963354 195.134928,36 194.322741,36 C193.479316,36 192.768663,35.8041686 192.190761,35.4125 C191.612858,35.0208314 191.323912,34.5743358 191.323912,34.073 Z"/>
  </g>
</svg>
