<svg xmlns="http://www.w3.org/2000/svg" width="296" height="37" viewBox="0 0 296 37">
  <g fill="none" fill-rule="evenodd" transform="translate(-.003)">
    <path fill="#333" d="M0.195402439,34.59 L0.195402439,1.643 C0.195402439,1.23566463 0.375018021,0.90666792 0.734254573,0.656 C1.09349113,0.40533208 1.55424414,0.28 2.11652744,0.28 C2.67881074,0.28 3.14737313,0.40533208 3.52222866,0.656 C3.89708419,0.90666792 4.08450915,1.23566463 4.08450915,1.643 L4.08450915,34.59 C4.08450915,34.9346684 3.88927482,35.2558318 3.4988003,35.5535 C3.10832579,35.8511682 2.64757278,36 2.11652744,36 C1.5854821,36 1.13253846,35.8590014 0.757682927,35.577 C0.382827394,35.2949986 0.195402439,34.9660019 0.195402439,34.59 Z M10.2227378,6.954 C9.75416839,6.48399765 9.5198872,5.95133631 9.5198872,5.356 C9.5198872,4.76066369 9.75416839,4.24366886 10.2227378,3.805 C10.6913072,3.36633114 11.2692008,3.147 11.956436,3.147 C12.6124332,3.147 13.174708,3.36633114 13.6432774,3.805 C14.1118469,4.24366886 14.346128,4.76066369 14.346128,5.356 C14.346128,5.95133631 14.1118469,6.47616439 13.6432774,6.9305 C13.174708,7.3848356 12.6124332,7.612 11.956436,7.612 C11.3004388,7.612 10.7225452,7.39266886 10.2227378,6.954 Z M10.035311,34.59 L10.035311,15.085 C10.035311,14.6776646 10.2227359,14.3486679 10.5975915,14.098 C10.972447,13.8473321 11.4253906,13.722 11.956436,13.722 C12.5187193,13.722 12.9872817,13.8473321 13.3621372,14.098 C13.7369927,14.3486679 13.9244177,14.6776646 13.9244177,15.085 L13.9244177,34.59 C13.9244177,34.9346684 13.7291834,35.2558318 13.3387088,35.5535 C12.9482343,35.8511682 12.4874813,36 11.956436,36 C11.4253906,36 10.972447,35.8590014 10.5975915,35.577 C10.2227359,35.2949986 10.035311,34.9660019 10.035311,34.59 Z M17.2512439,15.32 C17.2512439,14.8813311 17.524572,14.4896684 18.0712363,14.145 C18.6179006,13.8003316 19.1723661,13.628 19.7346494,13.628 C20.3906466,13.628 20.8123527,13.8786642 20.9997805,14.38 L26.9505823,30.36 L32.8076707,14.568 C33.0575744,13.9413302 33.4792806,13.628 34.0728018,13.628 C34.5726092,13.628 35.1192653,13.8003316 35.7127866,14.145 C36.3063078,14.4896684 36.603064,14.8813311 36.603064,15.32 C36.603064,15.5706679 36.540589,15.8213321 36.4156372,16.072 L28.7311372,35.577 C28.4812335,36.1410028 27.8877211,36.423 26.9505823,36.423 C25.9822055,36.423 25.3730744,36.1410028 25.1231707,35.577 L17.4386707,16.072 C17.3137189,15.6959981 17.2512439,15.445334 17.2512439,15.32 Z M39.0864695,27.258 L39.0864695,22.323 C39.0864695,19.9103213 40.0001662,17.8266754 41.8275869,16.072 C43.6550076,14.3173246 45.8494415,13.44 48.4109543,13.44 C50.8475152,13.44 52.956046,14.2624918 54.7366098,15.9075 C56.5171735,17.5525082 57.4074421,19.6126543 57.4074421,22.088 C57.4074421,22.9966712 57.2981108,23.7251639 57.0794451,24.2735 C56.8607794,24.8218361 56.5249764,25.2134988 56.0720259,25.4485 C55.6190755,25.6835012 55.1973693,25.832333 54.8068948,25.895 C54.4164203,25.957667 53.8931923,25.989 53.2371951,25.989 L42.9755762,25.989 L42.9755762,27.399 C42.9755762,29.1223419 43.5925167,30.5009948 44.8264162,31.535 C46.0603156,32.5690052 47.6612371,33.086 49.6292287,33.086 C50.6600814,33.086 51.5581593,32.9293349 52.3234893,32.616 C53.0888194,32.3026651 53.7057599,31.9971682 54.1743293,31.6995 C54.6428987,31.4018318 55.0177486,31.253 55.2988902,31.253 C55.7362217,31.253 56.1110716,31.4488314 56.4234512,31.8405 C56.7358308,32.2321686 56.8920183,32.6316646 56.8920183,33.039 C56.8920183,33.7596703 56.1813653,34.4959962 54.7600381,35.248 C53.3387109,36.0000038 51.5816019,36.376 49.4886585,36.376 C46.4273384,36.376 43.928339,35.5378417 41.9915854,33.8615 C40.0548318,32.1851583 39.0864695,29.9840136 39.0864695,27.258 Z M42.9755762,23.357 L51.6440671,23.357 C52.4562541,23.357 53.0029102,23.2551677 53.2840518,23.0515 C53.5651935,22.8478323 53.7057622,22.4483363 53.7057622,21.853 C53.7057622,20.4429929 53.1903436,19.2053387 52.1594909,18.14 C51.1286381,17.0746613 49.8635197,16.542 48.3640976,16.542 C46.8959134,16.542 45.6307949,17.0354951 44.5687043,18.0225 C43.5066136,19.0095049 42.9755762,20.2236595 42.9755762,21.665 L42.9755762,23.357 Z M179.703448,28.903 L179.703448,4.698 C179.703448,4.32199812 179.906492,4.00083466 180.312585,3.7345 C180.718679,3.46816533 181.156004,3.335 181.624573,3.335 C182.124381,3.335 182.577324,3.46816533 182.983418,3.7345 C183.389511,4.00083466 183.592555,4.32199812 183.592555,4.698 L183.592555,13.722 L189.4965,13.722 C189.840118,13.722 190.121255,13.8786651 190.339921,14.192 C190.558586,14.5053349 190.667918,14.8656646 190.667918,15.273 C190.667918,15.6803354 190.558586,16.0328318 190.339921,16.3305 C190.121255,16.6281682 189.840118,16.777 189.4965,16.777 L183.592555,16.777 L183.592555,28.903 C183.592555,30.2503401 183.881502,31.1981639 184.459404,31.7465 C185.037306,32.2948361 186.044715,32.569 187.481662,32.569 L188.93422,32.569 C189.465265,32.569 189.879162,32.7334984 190.175922,33.0625 C190.472683,33.3915016 190.621061,33.7909976 190.621061,34.261 C190.621061,34.7310023 190.464874,35.1383316 190.152494,35.483 C189.840114,35.8276684 189.434027,36 188.93422,36 L187.481662,36 C182.29616,36 179.703448,33.634357 179.703448,28.903 Z M194.510168,6.954 C194.041598,6.48399765 193.807317,5.95133631 193.807317,5.356 C193.807317,4.76066369 194.041598,4.24366886 194.510168,3.805 C194.978737,3.36633114 195.556631,3.147 196.243866,3.147 C196.899863,3.147 197.462138,3.36633114 197.930707,3.805 C198.399277,4.24366886 198.633558,4.76066369 198.633558,5.356 C198.633558,5.95133631 198.399277,6.47616439 197.930707,6.9305 C197.462138,7.3848356 196.899863,7.612 196.243866,7.612 C195.587869,7.612 195.009975,7.39266886 194.510168,6.954 Z M194.322741,34.59 L194.322741,15.085 C194.322741,14.6776646 194.510166,14.3486679 194.885021,14.098 C195.259877,13.8473321 195.712821,13.722 196.243866,13.722 C196.806149,13.722 197.274712,13.8473321 197.649567,14.098 C198.024423,14.3486679 198.211848,14.6776646 198.211848,15.085 L198.211848,34.59 C198.211848,34.9346684 198.016613,35.2558318 197.626139,35.5535 C197.235664,35.8511682 196.774911,36 196.243866,36 C195.712821,36 195.259877,35.8590014 194.885021,35.577 C194.510166,35.2949986 194.322741,34.9660019 194.322741,34.59 Z M202.944375,27.258 L202.944375,22.558 C202.944375,19.8633199 203.733122,17.6700085 205.310639,15.978 C206.888156,14.2859915 209.20754,13.44 212.26886,13.44 C214.205613,13.44 215.837772,13.7846632 217.165386,14.474 C218.492999,15.1633368 219.156796,15.8996627 219.156796,16.683 C219.156796,17.1216689 218.992799,17.5524979 218.6648,17.9755 C218.336802,18.3985021 217.954142,18.61 217.516811,18.61 C217.391859,18.61 216.853012,18.3358361 215.900255,17.7875 C214.947497,17.2391639 213.830756,16.965 212.55,16.965 C210.675722,16.965 209.254416,17.4506618 208.28604,18.422 C207.317663,19.3933382 206.833482,20.7719911 206.833482,22.558 L206.833482,27.258 C206.833482,30.9866853 208.754587,32.851 212.596857,32.851 C213.908851,32.851 215.04902,32.5690028 216.017396,32.005 C216.985773,31.4409972 217.548048,31.159 217.704238,31.159 C218.204045,31.159 218.617942,31.3626646 218.945941,31.77 C219.273939,32.1773354 219.437936,32.6003311 219.437936,33.039 C219.437936,33.8223373 218.750711,34.5743297 217.376241,35.295 C216.001771,36.0156703 214.314946,36.376 212.315716,36.376 C209.223158,36.376 206.888156,35.5378417 205.310639,33.8615 C203.733122,32.1851583 202.944375,29.9840136 202.944375,27.258 Z M223.327043,34.59 L223.327043,1.643 C223.327043,1.23566463 223.506658,0.90666792 223.865895,0.656 C224.225131,0.40533208 224.685884,0.28 225.248168,0.28 C225.810451,0.28 226.279013,0.40533208 226.653869,0.656 C227.028724,0.90666792 227.216149,1.23566463 227.216149,1.643 L227.216149,23.639 L237.899479,13.957 C238.18062,13.7376656 238.461758,13.628 238.742899,13.628 C239.211469,13.628 239.656603,13.8159981 240.078316,14.192 C240.500028,14.5680019 240.710881,14.9909976 240.710881,15.461 C240.710881,15.8370019 240.570312,16.1503321 240.289171,16.401 L233.776088,22.182 L241.554302,33.509 C241.710492,33.7596679 241.788585,33.9946656 241.788585,34.214 C241.788585,34.6840023 241.554304,35.1304979 241.085735,35.5535 C240.617165,35.9765021 240.132984,36.188 239.633177,36.188 C239.195845,36.188 238.836614,35.9843354 238.555473,35.577 L231.105256,24.626 L227.216149,28.104 L227.216149,34.59 C227.216149,34.9346684 227.020915,35.2558318 226.630441,35.5535 C226.239966,35.8511682 225.779213,36 225.248168,36 C224.717122,36 224.264179,35.8590014 223.889323,35.577 C223.514468,35.2949986 223.327043,34.9660019 223.327043,34.59 Z M244.318848,27.258 L244.318848,22.323 C244.318848,19.9103213 245.232544,17.8266754 247.059965,16.072 C248.887386,14.3173246 251.08182,13.44 253.643332,13.44 C256.079893,13.44 258.188424,14.2624918 259.968988,15.9075 C261.749552,17.5525082 262.63982,19.6126543 262.63982,22.088 C262.63982,22.9966712 262.530489,23.7251639 262.311823,24.2735 C262.093157,24.8218361 261.757354,25.2134988 261.304404,25.4485 C260.851454,25.6835012 260.429747,25.832333 260.039273,25.895 C259.648798,25.957667 259.12557,25.989 258.469573,25.989 L248.207954,25.989 L248.207954,27.399 C248.207954,29.1223419 248.824895,30.5009948 250.058794,31.535 C251.292694,32.5690052 252.893615,33.086 254.861607,33.086 C255.892459,33.086 256.790537,32.9293349 257.555867,32.616 C258.321197,32.3026651 258.938138,31.9971682 259.406707,31.6995 C259.875277,31.4018318 260.250127,31.253 260.531268,31.253 C260.9686,31.253 261.34345,31.4488314 261.655829,31.8405 C261.968209,32.2321686 262.124396,32.6316646 262.124396,33.039 C262.124396,33.7596703 261.413743,34.4959962 259.992416,35.248 C258.571089,36.0000038 256.81398,36.376 254.721037,36.376 C251.659716,36.376 249.160717,35.5378417 247.223963,33.8615 C245.28721,32.1851583 244.318848,29.9840136 244.318848,27.258 Z M248.207954,23.357 L256.876445,23.357 C257.688632,23.357 258.235288,23.2551677 258.51643,23.0515 C258.797572,22.8478323 258.93814,22.4483363 258.93814,21.853 C258.93814,20.4429929 258.422722,19.2053387 257.391869,18.14 C256.361016,17.0746613 255.095898,16.542 253.596476,16.542 C252.128291,16.542 250.863173,17.0354951 249.801082,18.0225 C248.738992,19.0095049 248.207954,20.2236595 248.207954,21.665 L248.207954,23.357 Z M266.856924,28.903 L266.856924,4.698 C266.856924,4.32199812 267.059967,4.00083466 267.466061,3.7345 C267.872154,3.46816533 268.309479,3.335 268.778049,3.335 C269.277856,3.335 269.7308,3.46816533 270.136893,3.7345 C270.542987,4.00083466 270.74603,4.32199812 270.74603,4.698 L270.74603,13.722 L276.649976,13.722 C276.993593,13.722 277.274731,13.8786651 277.493396,14.192 C277.712062,14.5053349 277.821393,14.8656646 277.821393,15.273 C277.821393,15.6803354 277.712062,16.0328318 277.493396,16.3305 C277.274731,16.6281682 276.993593,16.777 276.649976,16.777 L270.74603,16.777 L270.74603,28.903 C270.74603,30.2503401 271.034977,31.1981639 271.61288,31.7465 C272.190782,32.2948361 273.198191,32.569 274.635137,32.569 L276.087695,32.569 C276.61874,32.569 277.032637,32.7334984 277.329398,33.0625 C277.626158,33.3915016 277.774537,33.7909976 277.774537,34.261 C277.774537,34.7310023 277.618349,35.1383316 277.30597,35.483 C276.99359,35.8276684 276.587502,36 276.087695,36 L274.635137,36 C269.449636,36 266.856924,33.634357 266.856924,28.903 Z M280.117372,32.804 C280.117372,32.3966646 280.250131,31.9971686 280.515654,31.6055 C280.781177,31.2138314 281.101361,31.018 281.476216,31.018 C281.72612,31.018 282.085351,31.2059981 282.553921,31.582 C283.02249,31.9580019 283.694096,32.3261649 284.568759,32.6865 C285.443422,33.0468351 286.474259,33.227 287.661302,33.227 C289.2232,33.227 290.355559,32.9450028 291.058413,32.381 C291.761267,31.8169972 292.112689,31.1120042 292.112689,30.266 C292.112689,29.2319948 291.72222,28.4095031 290.941271,27.7985 C290.160322,27.1874969 289.207579,26.7253349 288.083012,26.412 C286.958446,26.0986651 285.833896,25.7540019 284.709329,25.378 C283.584763,25.0019981 282.632019,24.3753377 281.85107,23.498 C281.070121,22.6206623 280.679652,21.4613405 280.679652,20.02 C280.679652,18.2339911 281.312212,16.6908398 282.577349,15.3905 C283.842487,14.0901602 285.771402,13.44 288.364152,13.44 C290.019764,13.44 291.534783,13.6984974 292.909253,14.2155 C294.283723,14.7325026 294.970948,15.3199967 294.970948,15.978 C294.970948,16.3540019 294.82257,16.7769976 294.525809,17.247 C294.229049,17.7170023 293.862008,17.952 293.424677,17.952 C293.299725,17.952 292.698403,17.7248356 291.620694,17.2705 C290.542984,16.8161644 289.4731,16.589 288.411009,16.589 C286.974063,16.589 285.904179,16.92583 285.201325,17.5995 C284.498471,18.27317 284.147049,19.0329958 284.147049,19.879 C284.147049,20.7563377 284.537517,21.4456642 285.318466,21.947 C286.099415,22.4483358 287.059968,22.8399986 288.200154,23.122 C289.34034,23.4040014 290.472699,23.7486646 291.597265,24.156 C292.721832,24.5633354 293.674575,25.2604951 294.455524,26.2475 C295.236473,27.2345049 295.626942,28.5113255 295.626942,30.078 C295.626942,32.0206764 294.939717,33.5559944 293.565247,34.684 C292.190777,35.8120056 290.269671,36.376 287.801872,36.376 C285.677691,36.376 283.865916,35.9921705 282.366494,35.2245 C280.867072,34.4568295 280.117372,33.6500042 280.117372,32.804 Z"/>
    <path fill="#C8341E" fill-rule="nonzero" d="M61.2496921,28.386 L61.2496921,5.591 C61.2496921,5.05833067 61.562067,4.61183514 62.1868262,4.2515 C62.8115854,3.89116487 63.4988103,3.711 64.2485213,3.711 C65.0607083,3.711 65.7713613,3.89116487 66.3805015,4.2515 C66.9896418,4.61183514 67.2942073,5.05833067 67.2942073,5.591 L67.2942073,13.675 L72.8232988,13.675 C73.2918682,13.675 73.6667181,13.8943311 73.9478598,14.333 C74.2290014,14.7716689 74.3695701,15.2886637 74.3695701,15.884 C74.3695701,16.4793363 74.2290014,16.9963311 73.9478598,17.435 C73.6667181,17.8736689 73.2918682,18.093 72.8232988,18.093 L67.2942073,18.093 L67.2942073,28.386 C67.2942073,29.2946712 67.4894416,29.9369981 67.8799162,30.313 C68.2703907,30.6890019 68.9498061,30.877 69.9181829,30.877 L71.7455945,30.877 C72.5577815,30.877 73.1903407,31.1276642 73.6432912,31.629 C74.0962416,32.1303358 74.3227134,32.7256632 74.3227134,33.415 C74.3227134,34.1356703 74.0962416,34.7466642 73.6432912,35.248 C73.1903407,35.7493358 72.5577815,36 71.7455945,36 L69.9181829,36 C64.1391601,36 61.2496921,33.4620254 61.2496921,28.386 Z M76.7124055,26.788 L76.7124055,22.793 C76.7124055,20.2236538 77.7120052,18.0146759 79.7112348,16.166 C81.7104643,14.3173241 84.1313699,13.393 86.9740244,13.393 C89.6292511,13.393 91.9017787,14.2311583 93.7916753,15.9075 C95.6815719,17.5838417 96.6265061,19.6909873 96.6265061,22.229 C96.6265061,23.1690047 96.5093655,23.9444969 96.2750808,24.5555 C96.0407961,25.1665031 95.6815649,25.5973321 95.1973765,25.848 C94.7131881,26.0986679 94.2680539,26.255333 93.8619604,26.318 C93.4558669,26.380667 92.9248295,26.412 92.2688323,26.412 L82.7569207,26.412 L82.7569207,27.117 C82.7569207,28.4643401 83.2567206,29.5531625 84.2563354,30.3835 C85.2559501,31.2138375 86.5835436,31.629 88.2391555,31.629 C89.426198,31.629 90.597604,31.3313363 91.7534085,30.736 C92.9092131,30.1406637 93.6589129,29.843 94.0025305,29.843 C94.6585277,29.843 95.2051838,30.1484969 95.6425152,30.7595 C96.0798467,31.3705031 96.2985091,31.9579972 96.2985091,32.522 C96.2985091,33.3993377 95.5097625,34.268829 93.9322454,35.1305 C92.3547284,35.992171 90.3945757,36.423 88.0517287,36.423 C84.7092668,36.423 81.9837956,35.5378422 79.8752332,33.7675 C77.7666709,31.9971578 76.7124055,29.6706811 76.7124055,26.788 Z M82.7569207,22.84 L89.598,22.84 C90.0978074,22.84 90.4492292,22.7538342 90.6522759,22.5815 C90.8553227,22.4091658 90.9568445,22.0723358 90.9568445,21.571 C90.9568445,20.4743278 90.5585665,19.5813368 89.7619985,18.892 C88.9654305,18.2026632 87.9892588,17.858 86.8334543,17.858 C85.7401256,17.858 84.7873821,18.19483 83.9751951,18.8685 C83.1630081,19.54217 82.7569207,20.4273278 82.7569207,21.524 L82.7569207,22.84 Z M100.234473,34.073 L100.234473,15.555 C100.234473,14.9909972 100.507801,14.5366684 101.054465,14.192 C101.601129,13.8473316 102.327401,13.675 103.233302,13.675 C103.983013,13.675 104.615572,13.8473316 105.130998,14.192 C105.646425,14.5366684 105.904134,14.9909972 105.904134,15.555 L105.904134,16.965 C106.403942,15.9623283 107.208307,15.1163368 108.317255,14.427 C109.426202,13.7376632 110.714749,13.393 112.182933,13.393 C114.338352,13.393 116.220411,14.3329906 117.829166,16.213 C119.437921,18.0930094 120.242287,20.3333203 120.242287,22.934 L120.242287,34.073 C120.242287,34.6683363 119.937721,35.1383316 119.328581,35.483 C118.719441,35.8276684 118.008788,36 117.196601,36 C116.415652,36 115.720617,35.8276684 115.111477,35.483 C114.502337,35.1383316 114.197771,34.6683363 114.197771,34.073 L114.197771,22.934 C114.197771,21.8373279 113.791684,20.858171 112.979497,19.9965 C112.16731,19.134829 111.214566,18.704 110.121238,18.704 C109.090385,18.704 108.192307,19.0956628 107.426977,19.879 C106.661647,20.6623373 106.278988,21.6806604 106.278988,22.934 L106.278988,34.073 C106.278988,34.5430024 105.974422,34.9816646 105.365282,35.389 C104.756142,35.7963354 104.045489,36 103.233302,36 C102.389877,36 101.679224,35.8041686 101.101322,35.4125 C100.523419,35.0208314 100.234473,34.5743358 100.234473,34.073 Z M124.74053,34.073 L124.74053,15.555 C124.74053,14.9909972 125.013859,14.5366684 125.560523,14.192 C126.107187,13.8473316 126.833459,13.675 127.73936,13.675 C128.489071,13.675 129.12163,13.8473316 129.637056,14.192 C130.152483,14.5366684 130.410192,14.9909972 130.410192,15.555 L130.410192,16.965 C130.909999,15.9623283 131.714365,15.1163368 132.823313,14.427 C133.93226,13.7376632 135.220807,13.393 136.688991,13.393 C138.84441,13.393 140.726469,14.3329906 142.335224,16.213 C143.943979,18.0930094 144.748345,20.3333203 144.748345,22.934 L144.748345,34.073 C144.748345,34.6683363 144.443779,35.1383316 143.834639,35.483 C143.225498,35.8276684 142.514846,36 141.702659,36 C140.92171,36 140.226675,35.8276684 139.617535,35.483 C139.008395,35.1383316 138.703829,34.6683363 138.703829,34.073 L138.703829,22.934 C138.703829,21.8373279 138.297742,20.858171 137.485555,19.9965 C136.673368,19.134829 135.720624,18.704 134.627296,18.704 C133.596443,18.704 132.698365,19.0956628 131.933035,19.879 C131.167705,20.6623373 130.785046,21.6806604 130.785046,22.934 L130.785046,34.073 C130.785046,34.5430024 130.48048,34.9816646 129.87134,35.389 C129.2622,35.7963354 128.551547,36 127.73936,36 C126.895935,36 126.185282,35.8041686 125.60738,35.4125 C125.029477,35.0208314 124.74053,34.5743358 124.74053,34.073 Z M148.918591,5.732 C148.918591,4.91732926 149.238776,4.22016956 149.879154,3.6405 C150.519532,3.06083043 151.308279,2.771 152.245418,2.771 C153.151319,2.771 153.924446,3.06083043 154.564825,3.6405 C155.205203,4.22016956 155.525387,4.91732926 155.525387,5.732 C155.525387,6.51533725 155.205203,7.20466369 154.564825,7.8 C153.924446,8.39533631 153.151319,8.693 152.245418,8.693 C151.308279,8.693 150.519532,8.39533631 149.879154,7.8 C149.238776,7.20466369 148.918591,6.51533725 148.918591,5.732 Z M149.246588,34.073 L149.246588,15.555 C149.246588,14.9909972 149.527726,14.5366684 150.090009,14.192 C150.652292,13.8473316 151.370755,13.675 152.245418,13.675 C153.120081,13.675 153.846352,13.8473316 154.424255,14.192 C155.002157,14.5366684 155.291104,14.9909972 155.291104,15.555 L155.291104,34.073 C155.291104,34.5430023 154.986538,34.9816646 154.377398,35.389 C153.768258,35.7963354 153.057605,36 152.245418,36 C151.401993,36 150.69134,35.8041686 150.113437,35.4125 C149.535535,35.0208314 149.246588,34.5743358 149.246588,34.073 Z M158.711643,32.381 C158.711643,31.8169972 158.914687,31.2295031 159.32078,30.6185 C159.726874,30.0074969 160.195436,29.702 160.726482,29.702 C161.070099,29.702 161.499615,29.8743316 162.015041,30.219 C162.530468,30.5636684 163.209883,30.9161649 164.053308,31.2765 C164.896733,31.6368351 165.896333,31.817 167.052137,31.817 C169.332508,31.817 170.472677,31.1433401 170.472677,29.796 C170.472677,29.0439962 170.090018,28.4486689 169.324688,28.01 C168.559357,27.5713311 167.637851,27.2110014 166.560142,26.929 C165.482432,26.6469986 164.396929,26.3101686 163.303601,25.9185 C162.210272,25.5268314 161.280957,24.868838 160.515627,23.9445 C159.750296,23.020162 159.367637,21.8373405 159.367637,20.396 C159.367637,18.4846571 160.039243,16.8396736 161.382476,15.461 C162.725708,14.0823264 164.849857,13.393 167.754988,13.393 C169.691741,13.393 171.417613,13.6906637 172.932654,14.286 C174.447695,14.8813363 175.205204,15.6019958 175.205204,16.448 C175.205204,16.9806693 174.994351,17.5994965 174.572639,18.3045 C174.150926,19.0095035 173.627698,19.362 173.002939,19.362 C172.753035,19.362 172.07362,19.1348356 170.964672,18.6805 C169.855725,18.2261644 168.817078,17.999 167.848701,17.999 C166.786611,17.999 165.974436,18.2183311 165.412152,18.657 C164.849869,19.0956689 164.568732,19.5813307 164.568732,20.114 C164.568732,20.6466693 164.849869,21.0853316 165.412152,21.43 C165.974436,21.7746684 166.66947,22.0409991 167.497276,22.229 C168.325082,22.4170009 169.22316,22.6754984 170.191537,23.0045 C171.159913,23.3335016 172.057991,23.7173311 172.885797,24.156 C173.713603,24.5946689 174.408637,25.276162 174.970921,26.2005 C175.533204,27.124838 175.814341,28.2449934 175.814341,29.561 C175.814341,31.6916773 175.056832,33.3679939 173.541791,34.59 C172.02675,35.8120061 169.91041,36.423 167.192707,36.423 C164.84986,36.423 162.850661,36.0156707 161.195049,35.201 C159.539437,34.3863293 158.711643,33.4463387 158.711643,32.381 Z"/>
  </g>
</svg>
